<svg width="40" height="39" viewBox="0 0 40 39" fill="none" xmlns="http://www.w3.org/2000/svg">
<circle cx="19.5397" cy="19.5" r="19" fill="url(#paint0_linear_51_154)" stroke="url(#paint1_linear_51_154)"/>
<path d="M23.5665 14.7176C23.3929 14.7176 23.2233 14.7691 23.079 14.8655C22.9347 14.9619 22.8222 15.099 22.7558 15.2593C22.6894 15.4197 22.672 15.5961 22.7059 15.7663C22.7397 15.9365 22.8233 16.0929 22.946 16.2156C23.0687 16.3383 23.2251 16.4219 23.3953 16.4558C23.5655 16.4896 23.742 16.4722 23.9023 16.4058C24.0626 16.3394 24.1997 16.2269 24.2961 16.0826C24.3925 15.9383 24.444 15.7687 24.444 15.5951C24.444 15.3624 24.3515 15.1392 24.187 14.9746C24.0224 14.8101 23.7992 14.7176 23.5665 14.7176ZM26.9302 16.4873C26.916 15.8805 26.8024 15.2803 26.5939 14.7103C26.4079 14.2227 26.1185 13.7811 25.7456 13.416C25.3835 13.0412 24.9409 12.7536 24.4513 12.5751C23.8829 12.3602 23.2819 12.244 22.6744 12.2314C21.8992 12.1875 21.6506 12.1875 19.6616 12.1875C17.6726 12.1875 17.424 12.1875 16.6489 12.2314C16.0413 12.244 15.4404 12.3602 14.8719 12.5751C14.3832 12.7554 13.941 13.0427 13.5776 13.416C13.2028 13.7781 12.9152 14.2207 12.7367 14.7103C12.5218 15.2787 12.4056 15.8797 12.393 16.4873C12.3491 17.2624 12.3491 17.511 12.3491 19.5C12.3491 21.489 12.3491 21.7376 12.393 22.5128C12.4056 23.1203 12.5218 23.7213 12.7367 24.2897C12.9152 24.7793 13.2028 25.2219 13.5776 25.584C13.941 25.9573 14.3832 26.2446 14.8719 26.4249C15.4404 26.6398 16.0413 26.756 16.6489 26.7686C17.424 26.8125 17.6726 26.8125 19.6616 26.8125C21.6506 26.8125 21.8992 26.8125 22.6744 26.7686C23.2819 26.756 23.8829 26.6398 24.4513 26.4249C24.9409 26.2464 25.3835 25.9588 25.7456 25.584C26.1202 25.2203 26.4098 24.7783 26.5939 24.2897C26.8024 23.7197 26.916 23.1195 26.9302 22.5128C26.9302 21.7376 26.9741 21.489 26.9741 19.5C26.9741 17.511 26.9741 17.2624 26.9302 16.4873ZM25.614 22.425C25.6087 22.8892 25.5246 23.3491 25.3654 23.7851C25.2486 24.1034 25.0611 24.3909 24.8169 24.6261C24.5798 24.8677 24.2928 25.0549 23.976 25.1745C23.54 25.3337 23.08 25.4178 22.6159 25.4231C21.8846 25.4597 21.6141 25.467 19.6909 25.467C17.7677 25.467 17.4971 25.467 16.7659 25.4231C16.2839 25.4322 15.804 25.3579 15.3472 25.2038C15.0443 25.078 14.7706 24.8914 14.5429 24.6553C14.3002 24.4204 14.115 24.1326 14.0017 23.8144C13.8232 23.3721 13.7242 22.9017 13.7092 22.425C13.7092 21.6938 13.6654 21.4232 13.6654 19.5C13.6654 17.5768 13.6654 17.3063 13.7092 16.575C13.7125 16.1005 13.7992 15.6302 13.9652 15.1856C14.0939 14.877 14.2915 14.6018 14.5429 14.3813C14.765 14.1298 15.0396 13.9301 15.3472 13.7962C15.793 13.6354 16.2628 13.5513 16.7366 13.5476C17.4679 13.5476 17.7384 13.5038 19.6616 13.5038C21.5848 13.5038 21.8554 13.5037 22.5866 13.5476C23.0508 13.5529 23.5107 13.637 23.9467 13.7962C24.279 13.9196 24.5773 14.1201 24.8169 14.3813C25.0566 14.6059 25.2438 14.8805 25.3654 15.1856C25.5279 15.6309 25.612 16.101 25.614 16.575C25.6506 17.3063 25.6579 17.5768 25.6579 19.5C25.6579 21.4232 25.6506 21.6938 25.614 22.425ZM19.6616 15.7487C18.92 15.7501 18.1954 15.9714 17.5795 16.3844C16.9636 16.7975 16.4839 17.3839 16.2011 18.0695C15.9183 18.7551 15.845 19.5091 15.9906 20.2363C16.1362 20.9635 16.494 21.6313 17.0189 22.1552C17.5439 22.6791 18.2123 23.0356 18.9398 23.1798C19.6673 23.3239 20.4211 23.2492 21.1062 22.9651C21.7912 22.6809 22.3767 22.2001 22.7885 21.5834C23.2004 20.9666 23.4202 20.2416 23.4202 19.5C23.4212 19.0065 23.3246 18.5176 23.136 18.0616C22.9473 17.6056 22.6704 17.1913 22.3211 16.8427C21.9718 16.494 21.557 16.2179 21.1006 16.0302C20.6442 15.8424 20.1551 15.7468 19.6616 15.7487ZM19.6616 21.9351C19.18 21.9351 18.7092 21.7922 18.3088 21.5247C17.9083 21.2571 17.5962 20.8768 17.4119 20.4319C17.2276 19.9869 17.1794 19.4973 17.2733 19.0249C17.3673 18.5526 17.5992 18.1187 17.9398 17.7782C18.2803 17.4376 18.7142 17.2057 19.1866 17.1117C19.6589 17.0178 20.1485 17.066 20.5935 17.2503C21.0384 17.4346 21.4187 17.7467 21.6863 18.1472C21.9539 18.5476 22.0967 19.0184 22.0967 19.5C22.0967 19.8198 22.0337 20.1364 21.9113 20.4319C21.789 20.7273 21.6096 20.9957 21.3835 21.2219C21.1574 21.448 20.8889 21.6273 20.5935 21.7497C20.298 21.8721 19.9814 21.9351 19.6616 21.9351Z" fill="white"/>
<defs>
<linearGradient id="paint0_linear_51_154" x1="19.5397" y1="0" x2="19.5397" y2="59.407" gradientUnits="userSpaceOnUse">
<stop stopColor="#7E61FF"/>
<stop offset="1" stopColor="#FFBD7E"/>
</linearGradient>
<linearGradient id="paint1_linear_51_154" x1="19.5397" y1="0" x2="19.5397" y2="39" gradientUnits="userSpaceOnUse">
<stop stopColor="white"/>
<stop offset="1" stopColor="white" stopOpacity="0"/>
</linearGradient>
</defs>
</svg>
