<svg width="259" height="66" viewBox="0 0 259 66" fill="none" xmlns="http://www.w3.org/2000/svg">
<mask id="mask0_1_204" style="mask-type:alpha" maskUnits="userSpaceOnUse" x="0" y="0" width="67" height="66">
<rect x="0.911957" y="0.860474" width="65.2397" height="64.6388" fill="#D9D9D9"/>
</mask>
<g mask="url(#mask0_1_204)">
<path d="M13.0358 5.41322C19.1388 12.8307 25.8115 22.1428 26.91 23.6343C26.9507 23.7149 26.9914 23.7552 27.0321 23.7955C27.6017 24.6018 28.09 25.2065 28.4561 25.6499C29.2699 26.6577 29.514 26.9399 29.0258 27.2221C28.6189 27.4236 28.2527 27.5043 27.8458 27.5043C27.3983 27.5043 26.8693 27.3027 26.5032 26.9399C26.259 26.698 24.4688 24.0777 22.0276 20.3287C20.156 17.4262 18.6099 15.0478 18.5692 15.0075C18.4879 14.9269 18.4879 14.9269 21.8242 20.9334C23.9399 24.7227 25.4046 27.5043 25.4046 27.7058C25.4046 28.0686 25.3232 28.2702 24.8757 28.7539C24.1433 29.6005 23.7771 30.5277 23.533 32.4627C23.2482 34.6395 22.5159 36.1714 20.4001 38.832C19.1795 40.3638 18.9761 40.646 18.6506 41.291C18.2437 42.0569 18.1624 42.5004 18.1217 43.5082C18.081 44.5563 18.1624 45.2416 18.4879 46.2091C18.7727 47.096 19.0575 47.6603 19.7898 48.8294C20.4408 49.8372 20.807 50.5628 20.807 50.845C20.807 51.0869 20.8477 51.0869 21.8649 50.845C24.2654 50.3209 26.1777 49.3534 27.2762 48.1844C27.9679 47.4588 28.09 47.0556 28.1306 46.0882C28.1306 45.4432 28.1306 45.3222 27.9272 44.9191C27.6424 44.3144 27.1135 43.8307 25.9742 43.0244C24.4688 42.0166 23.8585 41.1701 23.6551 40.0413C23.4923 39.1142 23.6958 38.4692 24.5095 36.7357C25.3639 34.962 25.5674 34.1961 25.7301 32.382C25.8115 31.213 25.9336 30.7695 26.2997 30.4067C26.6659 30.0036 26.9507 29.8827 27.8458 29.7617C29.2699 29.5602 30.165 29.1974 30.8974 28.5121C31.5483 27.9074 31.7925 27.343 31.8331 26.4965L31.8738 25.8515L31.5077 25.4483C30.2057 23.9568 12.2628 4.20386 12.1814 4.20386C12.0593 4.20386 12.4662 4.72791 13.0358 5.41322ZM21.4987 44.6369C21.7835 44.1129 21.6207 43.4679 21.1325 43.1454C20.6849 42.8229 19.9526 42.9841 19.9526 43.3872C19.9526 43.5082 20.034 43.5888 20.156 43.6694C20.4001 43.7904 20.4408 43.9516 20.2374 44.2338C20.034 44.5563 20.034 44.7982 20.2781 44.9997C20.6849 45.2819 21.2139 45.1207 21.4987 44.6369ZM30.287 16.3781C29.7174 16.2975 29.6767 16.2975 29.9616 16.2169C30.4905 16.1363 31.7111 16.2572 32.5655 16.4588C34.5592 16.9425 36.3494 18.1519 38.2617 20.2884L38.7906 20.8528L39.523 20.7318C42.6152 20.2481 45.7074 20.6109 48.352 21.8203C49.0844 22.1428 50.2236 22.8281 50.3457 22.9893C50.3864 23.0296 50.4677 23.3924 50.5491 23.7552C50.7525 25.0452 50.6305 26.0127 50.2643 26.7786C50.0609 27.1818 50.0202 27.3027 50.1829 27.6655C50.305 27.9477 50.6305 28.1493 50.956 28.1493C51.607 28.1493 52.2986 27.1011 52.6241 25.6499L52.7462 25.0855L52.9903 25.3677C54.3737 26.9399 55.4722 29.1167 55.6756 30.6486L55.7163 31.0517L55.4722 30.6889C55.0653 30.0439 54.6585 29.6408 54.1295 29.278C53.1937 28.6733 52.2173 28.4314 49.5726 28.3105C47.2128 28.1896 45.8701 27.988 44.5274 27.5446C42.249 26.819 41.1098 25.8112 38.4244 22.304C37.2445 20.7318 36.4714 19.8853 35.7391 19.1597C34.0302 17.5472 32.4028 16.7006 30.287 16.3781ZM50.8339 19.8853C50.8746 18.8372 51.0373 18.1518 51.3222 17.5069C51.4442 17.265 51.5256 17.0634 51.5663 17.0634C51.5663 17.0634 51.5256 17.265 51.4442 17.4666C51.2408 18.0712 51.2001 18.9178 51.3628 19.8853C51.5256 21.135 51.6476 21.2962 52.9496 22.6668C53.5599 23.3118 54.2923 24.0777 54.5364 24.4405L55.0247 25.0452L54.5364 24.6018C53.9668 24.0777 52.6241 22.9893 52.3393 22.8684C52.1359 22.7474 52.0952 22.7878 51.9731 22.9087C51.8511 23.0296 51.8511 23.1909 51.8104 23.9971C51.7697 25.2468 51.607 26.0127 51.2001 26.819C50.9967 27.2624 50.956 27.1415 51.1594 26.6577C51.3222 26.2949 51.3222 26.1336 51.3222 24.9646C51.3222 22.5862 51.0373 21.9815 49.3692 21.014C48.9623 20.7721 48.2706 20.4093 47.8231 20.2078C47.3755 20.0062 47.05 19.845 47.05 19.845C47.0907 19.8047 48.7182 20.2884 49.3692 20.5303C50.3457 20.8931 50.5084 20.9334 50.6305 20.8931C50.7525 20.8125 50.7932 20.5706 50.8339 19.8853ZM29.6767 18.0309C29.514 19.8853 30.2464 22.3443 31.4263 23.9568C32.3214 25.2065 33.7454 26.174 34.7626 26.2546C35.4543 26.3352 35.6577 26.0933 35.3322 25.6499C34.8847 25.0452 34.3964 24.0777 34.2337 23.6343C34.1523 23.3924 33.9489 22.6265 33.8268 21.9412C33.3386 19.6434 32.8503 18.7565 31.7518 18.1115C31.3449 17.8697 30.4905 17.5472 30.0022 17.4666L29.7174 17.4262L29.6767 18.0309ZM49.4099 36.0101C43.9171 33.793 42.0049 31.8983 42.0049 28.6733C42.0049 28.1896 42.0049 27.8268 42.0455 27.8268C42.0455 27.8268 42.2897 27.988 42.5338 28.1896C43.6323 29.0764 44.8936 29.4796 48.3113 29.9633C50.3457 30.2455 51.4849 30.4874 52.5428 30.8502C55.8791 31.9789 57.9541 34.1961 58.4424 37.2598C58.6051 38.1467 58.483 39.8398 58.2796 40.6863C58.0762 41.3716 57.5472 42.6213 57.3845 42.7019C57.3438 42.7019 57.3031 42.5407 57.3031 42.3391C57.2624 41.1701 56.6521 40.0816 55.6756 39.2351C54.5364 38.2273 53.0717 37.4614 49.4099 36.0101ZM45.3005 35.7683C45.3819 36.0101 45.5039 36.5342 45.5446 36.9373C45.9922 39.5576 44.6088 41.6538 41.9642 42.4601C41.6794 42.5407 40.5808 42.7826 39.4823 42.9438C37.2852 43.3066 36.3494 43.5485 35.3729 44.0322C34.6812 44.3547 33.8268 44.8788 33.9082 44.9191C33.9082 44.9191 34.0709 44.8788 34.2744 44.8385C35.495 44.395 36.8783 44.1935 38.9533 44.0726C39.7671 44.0322 40.7029 43.9516 41.0284 43.9113C42.9 43.6694 44.1613 43.105 45.1784 42.0972C45.7481 41.5329 46.0735 41.0088 46.3177 40.2429C46.4804 39.7592 46.5211 39.5979 46.5211 38.7513C46.5211 37.9048 46.5211 37.7435 46.3177 37.2195C46.0735 36.5342 45.7887 36.0101 45.4226 35.607L45.1784 35.3248L45.3005 35.7683ZM48.0672 41.3716C47.3348 39.7995 47.1721 38.3079 47.579 36.897C47.6196 36.7357 47.701 36.6148 47.7417 36.6148C47.7824 36.6148 47.9451 36.6954 48.1079 36.8164C48.4334 37.0582 49.1251 37.4211 50.9153 38.3885C53.1531 39.5979 54.4144 40.5654 55.3095 41.6135C56.0825 42.5407 56.5301 43.6291 56.7742 44.9594C56.8963 45.685 56.8149 47.4991 56.6521 48.2247C56.0418 50.6031 54.6585 52.4172 52.6648 53.5056C52.38 53.6668 52.0952 53.7878 52.0952 53.7878C52.0545 53.7878 52.1766 53.5056 52.3393 53.1831C52.9903 51.7722 53.0717 50.4016 52.5834 48.91C52.2579 47.9828 51.6476 46.8541 50.3457 44.9191C48.7996 42.7422 48.4334 42.1376 48.0672 41.3716ZM34.3964 46.4913C32.0773 46.8541 29.5547 48.1038 27.5203 49.7969L26.91 50.3209L27.439 50.4015C30.2057 50.845 30.9787 51.2078 32.891 53.1831C33.9895 54.3118 34.3557 54.594 35.2915 54.7956C36.6342 55.1584 37.9769 54.5134 38.4244 53.304C38.6279 52.78 38.5872 51.8931 38.3837 51.4093C37.8141 50.3612 36.2273 49.9984 35.4136 50.7644C34.7626 51.4093 34.966 52.3768 35.7798 52.5784C35.9832 52.6187 35.9425 52.6187 35.7391 52.4978C35.3729 52.3365 35.2102 52.0947 35.2102 51.7722C35.2102 50.9256 36.146 50.4822 37.0411 50.8853C37.6921 51.1675 37.9362 51.5706 37.9362 52.2156C37.9362 53.2637 37.0411 54.0296 36.0239 53.9087C35.495 53.8281 34.8033 53.5056 34.4371 53.1025C33.542 52.0947 33.8675 50.4822 35.1288 49.8775C36.1053 49.3937 37.3666 49.5147 38.343 50.1597C39.4823 50.8853 39.9705 51.5706 40.947 53.8281C41.2725 54.5537 41.6794 55.3599 41.8421 55.6421C42.7779 57.0127 43.8765 57.698 45.2191 57.698C45.9515 57.698 46.5211 57.5771 47.2128 57.2143C47.7417 56.9724 48.4741 56.4484 48.3927 56.4081C48.3927 56.4081 48.1486 56.4484 47.9045 56.5693C46.4397 57.1337 44.975 57.0934 44.1206 56.4887C43.5917 56.0856 43.1441 55.3196 42.9 54.3118C42.8593 54.1506 42.7372 53.3846 42.6152 52.6187C42.3304 50.724 42.0455 49.8372 41.3539 48.8697C40.6622 47.8619 39.3602 47.0153 37.8955 46.6525C37.0411 46.4107 35.3729 46.33 34.3964 46.4913ZM31.1415 31.7774C31.3449 31.0517 31.9959 30.3261 32.6469 30.1246C33.0538 30.0036 33.9489 30.0842 34.3557 30.2858C35.1288 30.6889 35.7391 31.6161 35.5763 32.2611C35.4136 33.0673 34.1116 33.7123 32.6062 33.7123C31.8331 33.7123 31.5483 33.6317 31.2635 33.2286C31.1008 32.9867 31.0194 32.2208 31.1415 31.7774ZM34.1523 30.568C34.5592 30.8099 34.6405 31.1727 34.3964 31.4952C34.2337 31.737 33.7454 31.9386 33.3792 31.9386C32.8503 31.9386 32.24 31.5355 32.24 31.213C32.2807 30.4874 33.4199 30.1246 34.1523 30.568ZM152.063 32.5836C150.842 28.5524 152.877 25.1662 157.189 24.1181C158.41 23.7956 164.025 23.9568 165.001 24.3196C165.367 24.4405 165.489 24.9646 165.53 26.0127C165.53 26.8593 165.612 27.8671 165.734 28.2702C165.896 28.8749 165.815 28.9958 165.164 28.9958C164.594 28.9958 164.228 28.633 163.74 27.6252C162.967 25.9724 161.99 25.4483 159.753 25.4483C156.905 25.4483 154.83 27.343 155.155 29.6408C155.358 31.1324 156.864 32.6239 160.282 34.6395C163.496 36.5745 165.367 38.1467 166.14 39.5576C168.134 43.3469 166.425 47.3781 161.99 49.4341C159.712 50.4822 155.887 50.6031 153.161 49.6759L151.453 49.1116V46.3703C151.453 43.9113 151.493 43.6291 152.063 43.6291C152.551 43.6291 152.755 43.9516 152.917 44.9191C153.324 47.3378 155.196 48.8294 157.84 48.8294C160.444 48.8294 162.275 47.4185 162.967 44.8788C163.252 43.7904 163.211 43.3872 162.641 42.1779C161.95 40.7266 160.729 39.7995 156.62 37.4211C154.219 36.0908 152.592 34.317 152.063 32.5836ZM71.2587 25.7305C70.6891 25.7305 70.4857 25.529 70.4857 25.0855C70.4857 24.4809 70.6891 24.4405 75.124 24.4405C79.2333 24.4405 79.7216 24.5212 79.6402 24.9646C79.5995 25.2468 79.0299 25.6499 78.3789 25.8515L77.2397 26.2143L77.1583 34.4783C77.0769 40.001 77.199 43.1857 77.4431 44.0726C78.1755 46.6525 80.4539 48.1441 83.6682 48.1441C85.906 48.1441 87.208 47.62 88.8354 46.0882C90.585 44.4354 90.8698 42.8632 90.8698 34.6798C90.8698 26.6174 90.707 25.9724 88.9575 25.8112C88.1438 25.7305 87.8996 25.5693 87.8996 25.0855C87.8996 24.4809 88.1438 24.4405 91.8463 24.4405C95.5895 24.4405 95.7929 24.4809 95.7929 25.0855C95.7929 25.4887 95.5895 25.7305 95.2233 25.7305C93.7179 25.7305 93.6772 25.8918 93.4737 34.7201C93.2703 43.9113 93.0669 44.9997 91.1953 47.2169C90.6664 47.8619 89.3644 48.7891 88.3472 49.3131C86.679 50.1194 86.1094 50.2403 83.18 50.2403C80.4539 50.2403 79.5995 50.1194 78.2569 49.4744C76.2632 48.5875 75.0019 47.4185 74.0254 45.685C73.3744 44.4757 73.2931 43.8307 73.171 35.607C72.9269 26.174 72.8455 25.7305 71.2587 25.7305ZM102.018 25.7305C101.286 25.7305 101.041 25.5693 101.041 25.0855C101.041 24.4809 101.245 24.4405 104.419 24.4809L107.796 24.5212L109.423 26.3755C110.318 27.3833 113.207 30.568 115.852 33.3898C118.496 36.252 121.548 39.5576 122.606 40.767C123.663 41.9763 124.681 42.9438 124.843 42.9438C125.006 42.9438 125.087 39.5576 125.047 35.1233L124.925 27.3027L123.989 26.5368C123.501 26.0933 122.687 25.7708 122.28 25.7708C121.71 25.7708 121.466 25.6096 121.466 25.1259C121.466 24.4809 121.629 24.4809 125.983 24.5615C129.685 24.6421 130.499 24.7227 130.499 25.1259C130.499 25.408 130.051 25.6902 129.4 25.8112C128.79 25.9321 128.139 26.2143 127.936 26.4158C127.651 26.698 127.529 30.1246 127.447 38.3079L127.366 49.7969H126.389C125.576 49.7969 124.599 48.8697 119.391 43.226C116.055 39.5979 112.149 35.3248 110.725 33.672C109.301 32.0192 108.04 30.6889 107.877 30.6889C107.511 30.6486 107.592 45.2819 107.958 46.6525C108.243 47.741 108.487 47.9022 109.748 48.265C110.806 48.5472 111.213 48.8294 111.213 49.2325C111.213 49.7566 110.806 49.7969 106.616 49.7969C102.343 49.7969 102.018 49.7566 102.018 49.1922C102.018 48.7891 102.343 48.5069 102.994 48.3859C104.988 47.9828 105.151 47.3781 105.232 37.7435C105.314 32.3417 105.192 28.5927 104.988 27.7864C104.663 26.3755 103.686 25.7305 102.018 25.7305ZM136.52 25.7305C135.829 25.7305 135.585 25.5693 135.585 25.0855C135.585 24.4809 135.788 24.4405 140.508 24.4405C145.227 24.4405 145.431 24.4809 145.431 25.0855C145.431 25.5693 145.227 25.7305 144.617 25.7305C144.17 25.7305 143.478 26.0127 143.112 26.3755C142.461 27.0205 142.461 27.343 142.542 37.2598C142.623 46.975 142.664 47.5394 143.274 47.9425C143.641 48.1844 144.251 48.3859 144.658 48.3859C145.187 48.3859 145.431 48.5875 145.431 49.0309C145.431 49.6356 145.227 49.6759 140.508 49.6759C135.91 49.6759 135.585 49.6356 135.585 49.0713C135.585 48.6278 135.91 48.4263 136.887 48.265C138.84 47.9425 138.921 47.3378 138.799 36.0907C138.718 27.1011 138.677 26.5368 138.067 26.0933C137.7 25.9321 137.009 25.7305 136.52 25.7305ZM170.901 25.7305C170.453 25.7305 170.128 25.4887 170.006 25.0855C169.843 24.4405 170.006 24.4405 174.725 24.4405C179.404 24.4405 179.608 24.4809 179.608 25.0855C179.608 25.5693 179.404 25.7305 178.672 25.7305C176.597 25.7305 176.638 26.0933 179.771 34.5992C181.357 38.9126 182.903 43.0244 183.229 43.7097L183.758 44.9594L186.28 38.3482C189.251 30.568 189.617 29.1168 189.129 27.7058C188.762 26.698 187.42 25.7305 186.403 25.7305C186.118 25.7305 185.874 25.4484 185.874 25.0855C185.874 24.4809 186.077 24.4405 190.959 24.4405C195.842 24.4405 196.045 24.4809 196.045 25.0855C196.045 25.529 195.842 25.7305 195.272 25.7305C193.889 25.7305 193.279 26.4562 193.482 27.8671C193.685 29.3183 199.341 44.9594 199.585 44.7175C199.951 44.3547 206.217 27.5043 206.217 26.8593C206.217 26.053 205.647 25.7305 204.386 25.7305C203.817 25.7305 203.572 25.5693 203.572 25.0855C203.572 24.4809 203.776 24.4405 207.519 24.4405C210.855 24.4405 211.466 24.5212 211.466 24.9243C211.466 25.2065 211.059 25.5693 210.571 25.7305C209.431 26.1337 209.146 26.5771 207.763 30.1649C207.153 31.737 205.2 36.6551 203.45 41.1298C201.701 45.5641 200.195 49.3937 200.073 49.6356C199.992 49.8775 199.422 50.0791 198.853 50.0791H197.795L195.435 43.9919C194.133 40.646 192.587 36.6954 192.017 35.1636C191.041 32.5836 190.959 32.4627 190.593 33.2286C190.39 33.672 188.803 37.6226 187.135 42.0569L184.043 50.1194L182.903 50.0387L181.764 49.9581L177.37 38.6304C174.929 32.3014 172.691 26.9802 172.284 26.5368C171.959 26.0933 171.308 25.7305 170.901 25.7305ZM236.651 25.8918C236.61 25.7708 236.61 25.3274 236.61 25.3274C236.61 25.3274 236.61 25.1662 236.651 25.0855C236.732 25.0049 236.732 25.0049 236.976 24.9646C237.871 24.884 239.662 24.7227 241.126 24.6824C241.248 24.6824 241.411 24.6824 241.574 24.6824C243.201 24.6018 246.131 24.5212 248.165 24.6018C252.03 24.8034 254.756 26.6577 255.692 29.6811C256.628 32.7448 256.14 35.607 254.838 37.4211C253.577 39.2351 251.42 40.8073 247.84 40.7266C244.91 40.646 244.096 40.0816 243.486 39.6785C243.364 39.5979 243.242 39.5173 243.079 39.4367V43.3469C243.12 46.0075 243.12 47.2975 243.323 47.7409C243.608 48.3859 244.219 48.7488 245.48 49.0713C245.48 49.0713 246.049 49.1922 246.172 49.3534C246.334 49.4744 246.334 49.7969 246.334 49.7969C246.334 49.7969 246.375 50.0791 246.253 50.2403C246.131 50.4016 245.927 50.3612 245.927 50.3612L240.475 50.3209H237.18C237.18 50.3209 236.854 50.4016 236.691 50.2403C236.569 50.1194 236.569 49.7969 236.569 49.7969C236.569 49.7969 236.61 49.4744 236.732 49.3534C236.895 49.2325 237.465 49.0713 237.465 49.0713C238.726 48.7084 239.295 48.3456 239.58 47.6603C239.824 47.096 239.824 46.0478 239.824 37.4614C239.824 29.3183 239.824 27.7864 239.621 27.3833C239.336 26.7383 238.644 26.5771 237.668 26.3352C237.465 26.2949 237.261 26.2546 237.058 26.174C237.058 26.053 236.691 26.0127 236.651 25.8918ZM221.515 24.6421C221.515 24.6421 221.271 24.7227 220.905 24.884L219.603 25.529L218.667 27.8268C218.138 29.0764 217.243 31.4145 216.592 32.9867C215.453 35.8489 214.68 37.7032 213.907 39.6785C213.663 40.2429 212.971 42.0166 212.32 43.5888C211.669 45.161 211.059 46.6525 210.937 46.8944C210.896 46.9347 210.896 46.975 210.855 47.0153C210.489 47.6603 209.879 48.8294 208.821 48.9906C208.821 48.9906 208.211 49.0309 208.007 49.2728C207.804 49.4744 207.804 49.6759 207.804 49.6759V49.9581C207.804 49.9581 207.804 50.079 207.967 50.1597C208.089 50.2403 208.251 50.2403 208.251 50.2403L212.198 50.2H216.307C216.307 50.2 216.592 50.2403 216.714 50.1597C216.836 50.079 216.836 49.9178 216.836 49.9178V49.6356C216.836 49.6356 216.796 49.3131 216.633 49.1922C216.47 49.0712 215.86 48.9906 215.86 48.9906C214.232 48.7891 213.948 47.5394 214.151 46.451C214.232 45.9269 214.924 43.9113 215.656 41.8957L215.9 41.2104L220.173 41.1701C222.532 41.1701 224.567 41.1701 224.689 41.2104C224.892 41.2507 225.136 41.7748 225.909 43.6291C227.049 46.451 227.171 46.8138 226.886 47.3378C226.886 47.3781 226.845 47.4185 226.845 47.4588C226.601 47.9828 226.154 48.9503 224.974 49.0713C224.974 49.0713 224.363 49.1116 224.201 49.2728C224.038 49.4744 224.079 49.6759 224.079 49.6759V49.9581C224.079 49.9581 224.119 50.1194 224.201 50.2C224.282 50.2806 224.404 50.2403 224.404 50.2403L228.31 50.2H233.762C233.762 50.2 233.965 50.2403 234.047 50.1597C234.088 50.079 234.128 49.9984 234.128 49.9984V49.6356C234.128 49.6356 234.088 49.4341 234.006 49.3131C233.884 49.1922 233.192 49.0713 233.192 49.0713C232.297 48.91 231.85 48.1844 231.484 47.62C231.402 47.4991 231.321 47.3378 231.239 47.2572C231.077 47.0556 230.507 45.8866 230.1 44.7982C229.653 43.6694 228.676 41.1701 227.903 39.2351C227.13 37.3001 226.072 34.5589 225.543 33.1883C225.014 31.8177 223.956 29.1974 223.265 27.3833C223.143 27.1011 223.061 26.819 222.939 26.5771C222.451 25.3677 222.248 24.8437 222.207 24.8034C222.044 24.4002 221.515 24.6421 221.515 24.6421Z" fill="black"/>
</g>
<mask id="mask1_1_204" style="mask-type:alpha" maskUnits="userSpaceOnUse" x="61" y="13" width="198" height="53">
<rect width="196.844" height="52.3797" transform="matrix(-1 0 0 1 258.496 13.1198)" fill="#D9D9D9"/>
</mask>
<g mask="url(#mask1_1_204)">
<path d="M29.8977 46.4913C30.874 46.3301 32.5422 46.4107 33.3968 46.6525C34.8615 47.0153 36.1641 47.8624 36.8557 48.8702C37.5472 49.8376 37.8317 50.7248 38.1165 52.6193C38.2384 53.3846 38.3609 54.1497 38.4016 54.3116C38.6457 55.3193 39.0935 56.0852 39.6223 56.4884C40.4768 57.0931 41.9418 57.1338 43.4065 56.5695C43.6506 56.4486 43.8948 56.4083 43.8948 56.4083C43.9737 56.45 43.2423 56.9725 42.7141 57.214C42.0226 57.5767 41.4532 57.6984 40.721 57.6984C39.3784 57.6984 38.2798 57.0131 37.344 55.6427C37.1813 55.3605 36.774 54.5539 36.4485 53.8282C35.4722 51.5711 34.984 50.8858 33.845 50.1603C32.8685 49.5153 31.6066 49.3943 30.6302 49.8781C29.3693 50.4829 29.0438 52.095 29.9388 53.1027C30.3049 53.5058 30.9967 53.8287 31.5257 53.9093C32.5427 54.0302 33.4377 53.2639 33.4378 52.2159C33.4378 51.5711 33.1938 51.168 32.5432 50.8859C31.6481 50.4827 30.7122 50.926 30.7122 51.7726C30.7123 52.0949 30.8746 52.337 31.2405 52.4982C31.4439 52.6191 31.485 52.6186 31.2815 52.5782C30.4679 52.3767 30.2645 51.4097 30.9153 50.7648C31.729 49.9989 33.3153 50.3614 33.885 51.4093C34.0884 51.893 34.1294 52.7797 33.9261 53.3038C33.4785 54.5132 32.1359 55.1588 30.7932 54.796C29.8574 54.5945 29.4914 54.3115 28.3929 53.1827C26.4807 51.2076 25.7073 50.8449 22.9407 50.4015L22.4114 50.3214L23.0218 49.797C25.056 48.104 27.5787 46.8542 29.8977 46.4913ZM43.2434 36.6154C43.2841 36.6154 43.4469 36.6956 43.6096 36.8165C43.9352 37.0584 44.6271 37.4213 46.4173 38.3888C48.6547 39.598 49.9158 40.5655 50.8108 41.6134C51.5838 42.5405 52.0315 43.629 52.2757 44.9591C52.3977 45.6847 52.3163 47.4991 52.1536 48.2247C51.5433 50.6031 50.1599 52.4176 48.1663 53.506C47.8816 53.6671 47.597 53.7882 47.597 53.7882C47.5563 53.7882 47.6783 53.5052 47.8411 53.1827C48.4919 51.772 48.5734 50.4016 48.0852 48.9103C47.7597 47.9831 47.1489 46.854 45.847 44.9191C44.3012 42.7427 43.9348 42.138 43.5686 41.3722C42.8364 39.8002 42.6737 38.3084 43.0804 36.8976C43.121 36.7364 43.2027 36.6154 43.2434 36.6154ZM7.68289 4.20422C7.76426 4.20422 25.7054 23.955 27.0091 25.4484L27.3753 25.8517L27.3352 26.4962C27.2945 27.3428 27.0497 27.9072 26.3987 28.5118C25.6664 29.1971 24.7718 29.5603 23.3479 29.7618C22.4528 29.8828 22.1672 30.0042 21.8011 30.4073C21.4352 30.7701 21.3131 31.2135 21.2317 32.382C21.069 34.1959 20.8653 34.9619 20.011 36.7355C19.1974 38.4687 18.9939 39.1142 19.1565 40.0411C19.36 41.1699 19.9705 42.0168 21.4759 43.0245C22.615 43.8307 23.1442 44.3144 23.429 44.9191C23.6324 45.3221 23.6321 45.4433 23.6321 46.088C23.5914 47.0555 23.4693 47.4591 22.7776 48.1847C21.679 49.3536 19.7668 50.3208 17.3665 50.8448C16.3494 51.0867 16.3089 51.0867 16.3089 50.8448C16.3086 50.5625 15.9421 49.8367 15.2913 48.8292C14.5591 47.6604 14.2743 47.0959 13.9895 46.2091C13.6641 45.2417 13.5826 44.556 13.6233 43.5079C13.664 42.5004 13.7458 42.057 14.1526 41.2911C14.4781 40.6462 14.6812 40.3638 15.9016 38.8322C18.0173 36.1717 18.7496 34.6397 19.0345 32.463C19.2786 30.5281 19.6449 29.6006 20.3772 28.754C20.8247 28.2704 20.9065 28.0689 20.9065 27.7062C20.9065 27.5046 19.4412 24.7231 17.3255 20.9337C13.9899 14.9285 13.9893 14.9274 14.0706 15.0079C14.1113 15.0482 15.658 17.4268 17.5296 20.3292C19.9703 24.0775 21.7606 26.6971 22.0052 26.9396C22.3713 27.3024 22.9004 27.504 23.3479 27.504C23.7547 27.504 24.1209 27.4233 24.5276 27.2218C25.0154 26.9397 24.7716 26.6577 23.9583 25.6505C23.5921 25.2071 23.1031 24.6022 22.5335 23.796C22.4928 23.7557 22.4521 23.7154 22.4114 23.6349C21.3129 22.1433 14.6404 12.8306 8.53738 5.41321C7.96823 4.72845 7.56164 4.20493 7.68289 4.20422ZM237.075 24.6827C238.703 24.6021 241.633 24.5211 243.667 24.6017C247.532 24.8033 250.258 26.6578 251.194 29.6808C252.129 32.7445 251.641 35.607 250.339 37.421C249.078 39.235 246.921 40.8073 243.341 40.7267C240.412 40.646 239.598 40.0819 238.988 39.6788C238.866 39.5983 238.744 39.5172 238.581 39.4366V43.3468C238.622 46.0074 238.622 47.2979 238.825 47.7413C239.11 48.3861 239.721 48.749 240.982 49.0714C240.991 49.0733 241.552 49.1937 241.673 49.3536C241.836 49.4744 241.836 49.7959 241.836 49.797C241.837 49.7999 241.876 50.08 241.754 50.2404C241.632 50.4014 241.429 50.3615 241.429 50.3615L235.977 50.3214H232.682C232.682 50.3214 232.356 50.4014 232.194 50.2404C232.072 50.1194 232.072 49.797 232.072 49.797C232.072 49.7924 232.113 49.4738 232.234 49.3536C232.395 49.234 232.954 49.0748 232.966 49.0714C234.227 48.7086 234.798 48.3456 235.082 47.6603C235.326 47.0958 235.326 46.0462 235.326 37.4611C235.326 29.3199 235.326 27.7874 235.122 27.3839C234.838 26.739 234.146 26.5769 233.17 26.3351C232.967 26.2948 232.763 26.2545 232.56 26.174C232.56 26.0531 232.193 26.0126 232.153 25.8917C232.112 25.7706 232.112 25.3273 232.112 25.3273C232.112 25.3198 232.113 25.1648 232.153 25.0861C232.234 25.0055 232.234 25.0052 232.478 24.965C233.373 24.8843 235.163 24.7231 236.628 24.6827H237.075ZM152.691 24.1183C153.911 23.7958 159.527 23.9566 160.503 24.3195C160.869 24.4405 160.991 24.9648 161.032 26.0128C161.032 26.8594 161.114 27.8675 161.236 28.2706C161.398 28.875 161.316 28.9962 160.665 28.9962C160.096 28.996 159.73 28.6327 159.241 27.6251C158.468 25.9725 157.492 25.4484 155.254 25.4484C152.406 25.4485 150.331 27.3431 150.657 29.6407C150.86 31.1323 152.366 32.6242 155.783 34.6398C158.998 36.5746 160.869 38.1469 161.642 39.5577C163.635 43.347 161.927 47.3777 157.492 49.4337C155.214 50.4818 151.389 50.603 148.663 49.6759L146.954 49.1115V46.3702C146.954 43.9114 146.995 43.629 147.565 43.629C148.053 43.6291 148.257 43.9518 148.419 44.9191C148.826 47.3378 150.697 48.8292 153.342 48.8292C155.946 48.8292 157.777 47.4187 158.469 44.879C158.754 43.7906 158.712 43.3872 158.143 42.1779C157.451 40.7268 156.231 39.7993 152.121 37.421C149.721 36.0908 148.094 34.3174 147.565 32.5841C146.344 28.553 148.378 25.1665 152.691 24.1183ZM217.017 24.6427C217.017 24.6427 217.546 24.4007 217.708 24.8038C217.749 24.8441 217.952 25.368 218.441 26.5773C218.563 26.8191 218.645 27.1017 218.767 27.3839C219.459 29.1979 220.516 31.8181 221.045 33.1886C221.574 34.5593 222.632 37.3006 223.405 39.2355C224.178 41.1703 225.154 43.6691 225.602 44.798C226.009 45.8862 226.579 47.0551 226.741 47.257C226.823 47.3376 226.904 47.4993 226.986 47.6202C227.352 48.1846 227.8 48.9102 228.695 49.0714C228.714 49.0748 229.388 49.1944 229.508 49.3136C229.589 49.4346 229.63 49.6359 229.63 49.6359V49.9982C229.63 49.9982 229.589 50.0797 229.548 50.1603C229.468 50.2389 229.271 50.2016 229.264 50.2003H223.812L219.906 50.2404C219.9 50.2422 219.782 50.2788 219.702 50.2003C219.621 50.1197 219.58 49.9581 219.58 49.9581V49.6759C219.579 49.6697 219.542 49.471 219.702 49.2726C219.865 49.1115 220.476 49.0714 220.476 49.0714C221.655 48.9503 222.103 47.9831 222.347 47.4591C222.347 47.4188 222.388 47.3783 222.388 47.338C222.673 46.814 222.551 46.4508 221.411 43.629C220.638 41.7748 220.394 41.2504 220.191 41.2101C220.068 41.1698 218.034 41.17 215.674 41.17L211.403 41.2101L211.158 41.8956C210.426 43.9112 209.734 45.9272 209.653 46.4513C209.449 47.5397 209.734 48.7888 211.362 48.9904C211.362 48.9904 211.972 49.0716 212.135 49.1925C212.297 49.3137 212.338 49.6359 212.338 49.6359V49.9181C212.338 49.9235 212.336 50.0811 212.216 50.1603C212.094 50.2408 211.809 50.2003 211.809 50.2003H207.699L203.753 50.2404C203.753 50.2404 203.59 50.2409 203.468 50.1603C203.305 50.0797 203.306 49.9581 203.306 49.9581V49.6759C203.306 49.6693 203.309 49.4708 203.509 49.2726C203.711 49.0332 204.311 48.9911 204.323 48.9904C205.38 48.8291 205.991 47.6608 206.357 47.0157C206.397 46.9754 206.398 46.935 206.439 46.8947C206.561 46.6527 207.171 45.161 207.822 43.589C208.472 42.017 209.164 40.2434 209.408 39.6788C210.182 37.7035 210.955 35.8486 212.094 32.9865C212.745 31.4144 213.64 29.0769 214.169 27.8273L215.105 25.5294L216.407 24.8839C216.765 24.7258 217.007 24.6458 217.017 24.6427ZM87.3479 24.4406C91.0911 24.4406 91.2942 24.4814 91.2942 25.0861C91.2941 25.489 91.091 25.7306 90.7249 25.7306C89.2196 25.7306 89.1793 25.8922 88.9759 34.7198C88.7724 43.911 88.5682 44.9998 86.6966 47.2169C86.1675 47.8619 84.866 48.7896 83.8489 49.3136C82.1809 50.1198 81.6111 50.2404 78.6819 50.2404C75.9562 50.2404 75.1015 50.1195 73.7591 49.4747C71.7654 48.5879 70.5041 47.4181 69.5276 45.6847C68.8767 44.4755 68.7952 43.8304 68.6731 35.6075C68.429 26.1745 68.3468 25.7306 66.76 25.7306C66.1909 25.7305 65.9877 25.5291 65.9876 25.0861C65.9876 24.4814 66.1908 24.4406 70.6253 24.4406C74.7346 24.4406 75.2233 24.5215 75.1419 24.965C75.1009 25.2471 74.5318 25.6501 73.8811 25.8517L72.7415 26.214L72.6604 34.4786C72.5791 40.0005 72.7006 43.1851 72.9446 44.0724C73.677 46.6524 75.9559 48.1447 79.1702 48.1447C81.4078 48.1446 82.7098 47.6198 84.3372 46.088C86.0866 44.4353 86.3714 42.8629 86.3714 34.6798C86.3714 26.6176 86.2087 25.9729 84.4593 25.8116C83.6457 25.731 83.4018 25.5695 83.4016 25.0861C83.4016 24.4814 83.6455 24.4406 87.3479 24.4406ZM203.021 24.4406C206.356 24.4406 206.967 24.5212 206.967 24.924C206.967 25.2061 206.561 25.5693 206.073 25.7306C204.933 26.1337 204.648 26.5774 203.265 30.1652C202.655 31.7375 200.702 36.6555 198.952 41.13C197.203 45.5639 195.698 49.3932 195.575 49.6359C195.494 49.8777 194.924 50.0792 194.355 50.0792H193.296L190.937 43.9923C189.635 40.6467 188.089 36.6963 187.519 35.1642C186.542 32.5843 186.461 32.4628 186.095 33.2286C185.892 33.6721 184.305 37.6226 182.637 42.0568L179.544 50.1193L178.406 50.0392L177.266 49.9581L172.871 38.631C170.431 32.3039 168.194 26.9835 167.786 26.5372C167.461 26.0938 166.809 25.7306 166.403 25.7306C165.955 25.7306 165.629 25.489 165.507 25.0861C165.344 24.4411 165.507 24.4406 170.227 24.4406C174.906 24.4406 175.11 24.4814 175.11 25.0861C175.11 25.5694 174.906 25.7305 174.174 25.7306C172.099 25.7306 172.14 26.0939 175.273 34.5997C176.859 38.913 178.405 43.0248 178.731 43.7101L179.26 44.9591L181.783 38.3488C184.753 30.5688 185.118 29.1171 184.63 27.7062C184.264 26.6985 182.922 25.7308 181.905 25.7306C181.62 25.7306 181.375 25.4487 181.375 25.0861C181.375 24.4814 181.579 24.4406 186.461 24.4406C191.344 24.4406 191.547 24.4814 191.547 25.0861C191.547 25.5292 191.343 25.7306 190.774 25.7306C189.391 25.7307 188.78 26.4565 188.984 27.8673C189.187 29.3191 194.843 44.9598 195.087 44.7179C195.454 44.3528 201.718 27.5059 201.719 26.8595C201.719 26.0533 201.149 25.7306 199.888 25.7306C199.318 25.7306 199.075 25.5695 199.074 25.0861C199.074 24.4814 199.278 24.4406 203.021 24.4406ZM99.9202 24.4806L103.297 24.5216L104.925 26.3761C105.821 27.3843 108.709 30.5684 111.353 33.3898C113.997 36.2519 117.05 39.5574 118.108 40.7667C119.165 41.976 120.182 42.9433 120.345 42.9435C120.508 42.9435 120.589 39.5575 120.548 35.1232L120.426 27.3029L119.491 26.5372C119.002 26.0938 118.188 25.7706 117.782 25.7706C117.212 25.7706 116.968 25.6097 116.968 25.1261C116.968 24.4811 117.131 24.481 121.485 24.5616C125.187 24.6423 126 24.723 126 25.1261C126 25.4082 125.553 25.6907 124.902 25.8116C124.291 25.9326 123.64 26.2146 123.437 26.4161C123.152 26.7005 123.031 30.1276 122.949 38.3077L122.867 49.797H121.891C121.077 49.7968 120.1 48.8688 114.893 43.2257C111.557 39.5977 107.651 35.3247 106.227 33.672C104.803 32.0192 103.541 30.6886 103.378 30.6886C103.013 30.6607 103.094 45.2817 103.46 46.6525C103.745 47.7409 103.989 47.902 105.25 48.2648C106.308 48.5469 106.715 48.8295 106.715 49.2325C106.715 49.7566 106.308 49.797 102.117 49.797C97.8458 49.797 97.5199 49.7567 97.5198 49.1925C97.5198 48.7894 97.8454 48.5068 98.4964 48.3859C100.49 47.9827 100.652 47.3776 100.734 37.7433C100.815 32.3417 100.693 28.5925 100.49 27.7863C100.164 26.3756 99.1878 25.7306 97.5198 25.7306C96.7876 25.7306 96.5434 25.5695 96.5432 25.0861C96.5432 24.4814 96.7467 24.4403 99.9202 24.4806ZM136.009 24.4406C140.729 24.4406 140.933 24.4814 140.933 25.0861C140.933 25.5695 140.729 25.7306 140.118 25.7306C139.671 25.7308 138.98 26.0134 138.614 26.3761C137.963 27.021 137.963 27.344 138.044 37.2599C138.126 46.9751 138.166 47.5394 138.777 47.9425C139.143 48.1843 139.753 48.3858 140.159 48.3859C140.688 48.3859 140.933 48.5879 140.933 49.0314C140.933 49.6358 140.728 49.6759 136.009 49.6759C131.412 49.6759 131.086 49.6357 131.086 49.0714C131.086 48.628 131.412 48.426 132.388 48.2648C134.341 47.9423 134.423 47.338 134.301 36.0909C134.22 27.1034 134.179 26.5373 133.569 26.0939C133.202 25.9326 132.51 25.7306 132.022 25.7306C131.331 25.7305 131.086 25.5694 131.086 25.0861C131.086 24.4814 131.29 24.4406 136.009 24.4406ZM40.9241 35.6075C41.2902 36.0106 41.5755 36.5346 41.8196 37.2198C42.0229 37.7436 42.0227 37.905 42.0227 38.7511C42.0227 39.5977 41.9824 39.7595 41.8196 40.2433C41.5755 41.0091 41.2495 41.5335 40.68 42.0978C39.6629 43.1053 38.4017 43.6694 36.5305 43.9113C36.2051 43.9516 35.269 44.0321 34.4554 44.0724C32.3803 44.1933 30.9963 44.3956 29.7757 44.839C29.5725 44.8793 29.4095 44.9191 29.4095 44.9191C29.3316 44.8771 30.1839 44.3543 30.8743 44.0323C31.8507 43.5486 32.7868 43.3063 34.9837 42.9435C36.0822 42.7822 37.1813 42.5407 37.4661 42.4601C40.1106 41.6538 41.4936 39.5578 41.0462 36.9376C41.0055 36.5346 40.8834 36.0106 40.802 35.7687L40.68 35.3253L40.9241 35.6075ZM37.5471 27.8273C37.552 27.8305 37.7938 27.9901 38.0354 28.1896C39.1339 29.0764 40.3953 29.4793 43.8128 29.963C45.847 30.2452 46.9864 30.4879 48.0442 30.8507C51.3805 31.9794 53.4554 34.1962 53.9436 37.2599C54.1064 38.1468 53.985 39.8401 53.7815 40.6866C53.5781 41.372 53.0488 42.6217 52.886 42.7023C52.8454 42.7017 52.805 42.5402 52.805 42.339C52.7642 41.17 52.1534 40.082 51.177 39.2355C50.0378 38.2277 48.5731 37.4611 44.9114 36.0099C39.4189 33.7928 37.5061 31.8979 37.5061 28.673C37.5061 28.1901 37.5066 27.8282 37.5471 27.8273ZM242.161 26.4161C241.022 26.3759 238.744 26.577 238.662 28.1085C238.581 28.3907 238.581 30.2859 238.581 33.2286L238.622 37.9044L239.11 38.1466H239.151C239.435 38.3079 239.761 38.469 240.371 38.59C242.284 38.9528 245.132 38.5902 246.556 37.2599C247.98 35.9297 248.021 33.8334 248.021 32.5031C247.899 30.4068 247.044 26.4161 242.161 26.4161ZM216.081 30.4064C215.715 29.5197 215.593 29.2781 215.471 29.4796C215.43 29.521 215.227 30.1652 214.983 30.8497C213.396 35.3635 212.664 37.4197 212.541 37.7833C212.46 38.0249 212.379 38.2668 212.379 38.3478C212.379 38.4284 213.681 38.4689 215.878 38.4689C217.79 38.4689 219.377 38.4288 219.377 38.4288C219.377 38.4288 219.214 37.9851 219.011 37.4611C218.808 36.9773 218.278 35.7279 217.871 34.6798C217.424 33.6721 216.936 32.5033 216.773 32.0597C216.61 31.6566 216.285 30.8901 216.081 30.4064ZM28.1487 30.1251C28.5556 30.0042 29.4508 30.0847 29.8577 30.2863C30.6304 30.6894 31.2408 31.616 31.0784 32.2609C30.9157 33.0671 29.6131 33.712 28.1077 33.712C27.3348 33.712 27.0497 33.6317 26.7649 33.2286C26.6023 32.9865 26.5209 32.2208 26.6429 31.7775C26.8463 31.0519 27.4977 30.3267 28.1487 30.1251ZM25.4632 16.2169C25.9921 16.1363 27.2132 16.2575 28.0677 16.4591C30.061 16.9429 31.851 18.1521 33.763 20.2882L34.2923 20.8527L35.0247 20.7316C38.1169 20.2478 41.2092 20.6111 43.8538 21.8204C44.5858 22.1428 45.7239 22.8277 45.847 22.9894C45.8876 23.0297 45.9697 23.3923 46.0511 23.755C46.2545 25.0449 46.132 26.0125 45.7659 26.7784C45.5625 27.1816 45.5221 27.3033 45.6848 27.6661C45.807 27.948 46.1321 28.1494 46.4573 28.1495C47.1082 28.1495 47.8007 27.1016 48.1263 25.6505L48.2483 25.0861L48.4925 25.3683C49.8756 26.9403 50.9735 29.1169 51.177 30.6486L51.218 31.0519L50.9739 30.6886C50.5671 30.0438 50.1599 29.6412 49.6311 29.2784C48.6954 28.6738 47.719 28.4316 45.0745 28.3107C42.7149 28.1897 41.3721 27.9884 40.0296 27.545C37.7511 26.8194 36.6114 25.811 33.9261 22.3038C32.7463 20.7319 31.9728 19.8858 31.2405 19.1603C29.5317 17.5478 27.9041 16.7005 25.7884 16.3781C25.2192 16.2975 25.1785 16.2975 25.4632 16.2169ZM47.0677 17.0636C47.0666 17.0687 47.0259 17.2679 46.9456 17.4669C46.7422 18.0716 46.7018 18.9185 46.8645 19.8859C47.0273 21.1351 47.1496 21.2967 48.4514 22.6671C49.0617 23.3121 49.7943 24.0778 50.0384 24.4406L50.5266 25.045L50.0384 24.6017C49.4687 24.0776 48.1259 22.9892 47.8411 22.8683C47.6377 22.7474 47.5969 22.7884 47.4749 22.9093C47.3531 23.0302 47.3525 23.1915 47.3118 23.9972C47.2711 25.2469 47.1083 26.0132 46.7014 26.8195C46.4982 27.2623 46.4582 27.1416 46.6614 26.6583C46.8241 26.2955 46.8235 26.1338 46.8235 24.965C46.8235 22.5866 46.5394 21.9812 44.8714 21.0138C44.4645 20.7719 43.772 20.4097 43.3245 20.2081C42.8817 20.0087 42.5587 19.8482 42.552 19.8448C42.5991 19.8067 44.2217 20.289 44.8714 20.5304C45.8469 20.8928 46.0101 20.9339 46.1321 20.8937C46.2541 20.8131 46.2946 20.5708 46.3352 19.8859C46.3759 18.8378 46.5387 18.1519 46.8235 17.507C46.9452 17.2658 47.0269 17.0648 47.0677 17.0636ZM25.5042 17.4669C25.9923 17.5476 26.8463 17.8696 27.2532 18.1115C28.3517 18.7564 28.8402 19.6437 29.3284 21.9415C29.4505 22.6268 29.6543 23.393 29.7356 23.6349C29.8985 24.0785 30.3869 25.046 30.8343 25.6505C31.1593 26.0937 30.9554 26.3356 30.2639 26.255C29.2468 26.1742 27.823 25.2066 26.928 23.9572C25.7482 22.3448 25.0154 19.8857 25.178 18.0314L25.219 17.4259L25.5042 17.4669Z" fill="black"/>
</g>
</svg>
