<svg width="158" height="50" viewBox="0 0 158 50" fill="none" xmlns="http://www.w3.org/2000/svg">
<path d="M114.337 19.4342C111.095 19.8335 108.704 21.6575 107.825 24.38C107.221 26.2313 107.294 27.9918 108.054 29.7796C108.952 31.894 110.884 33.4005 113.449 33.9722C114.191 34.1446 116.105 34.1537 116.875 34.0085C119.851 33.4277 121.93 31.5945 122.791 28.8176C122.993 28.1552 123.02 27.9555 123.02 26.7758C123.02 25.596 122.993 25.3964 122.791 24.7339C121.94 21.9933 119.934 20.1874 117.067 19.5884C116.472 19.4705 114.841 19.3797 114.337 19.4342ZM116.151 23.0369C117.223 23.3182 118.239 24.0079 118.706 24.8156C119.43 26.0316 119.403 27.6379 118.651 28.7995C117.305 30.8958 114.228 31.2406 112.377 29.4982C110.839 28.0463 110.784 25.7412 112.249 24.1713C113.229 23.1367 114.786 22.6921 116.151 23.0369Z" fill="white" fill-opacity="0.39"/>
<path d="M130.184 19.4342C126.941 19.8335 124.551 21.6575 123.671 24.38C123.067 26.2313 123.14 27.9918 123.9 29.7796C124.798 31.894 126.731 33.4005 129.295 33.9722C130.037 34.1446 131.951 34.1537 132.721 34.0085C135.698 33.4277 137.777 31.5945 138.638 28.8176C138.839 28.1552 138.867 27.9555 138.867 26.7758C138.867 25.596 138.839 25.3964 138.638 24.7339C137.786 21.9933 135.78 20.1874 132.913 19.5884C132.318 19.4705 130.687 19.3797 130.184 19.4342ZM132.006 23.0369C133.087 23.3182 134.095 24.0079 134.562 24.8156C135.285 26.0316 135.258 27.6379 134.507 28.7995C133.16 30.8958 130.083 31.2406 128.233 29.4982C126.694 28.0463 126.639 25.7412 128.104 24.1713C129.075 23.1367 130.632 22.6921 132.006 23.0369Z" fill="white" fill-opacity="0.39"/>
<path d="M151.524 19.4801C149.638 19.7523 148.218 20.9502 147.76 22.6745C147.32 24.2989 147.632 25.9596 148.511 26.7672C149.033 27.2482 149.656 27.5295 151.369 28.074C153.026 28.6004 153.402 28.8272 153.576 29.3808C153.768 30.0161 153.292 30.7783 152.569 30.978C152.175 31.0869 151.433 31.0869 150.938 30.9689C150.398 30.8419 149.427 30.37 149.015 30.0161C148.832 29.8436 148.621 29.7166 148.584 29.7166C148.548 29.7166 148.337 30.0251 148.135 30.4063C147.851 30.9417 147.76 31.0597 147.742 30.9145L147.714 30.733H145.507H143.308V25.2336V19.7342H141.486H139.663V26.7854V33.8366H143.684H147.705V33.4464C147.705 33.2376 147.723 33.0652 147.742 33.0652C147.76 33.0652 148.09 33.2195 148.474 33.3919C149.665 33.9455 150.425 34.1088 151.9 34.1088C153.338 34.1088 154.016 33.9818 154.904 33.5553C155.609 33.2195 156.562 32.2848 156.883 31.6314C157.515 30.3246 157.606 28.5641 157.075 27.4479C156.983 27.2391 156.672 26.8308 156.379 26.5494C155.756 25.9323 155.087 25.5966 153.375 25.0521C152.697 24.8434 152.019 24.5893 151.863 24.4985C151.314 24.1627 151.204 23.4277 151.634 22.9648C152.385 22.1663 153.723 22.2389 155.115 23.1554L155.39 23.3278L156.131 21.9212C156.525 21.1589 156.855 20.5146 156.837 20.5056C156.754 20.4239 155.719 20.0155 155.133 19.834C153.897 19.4529 152.596 19.3167 151.524 19.4801Z" fill="white" fill-opacity="0.39"/>
<path d="M49.1237 24.78V34.0727H52.4393C54.262 34.0727 56.1671 34.0183 56.6617 33.9638C60.7559 33.4647 63.7785 31.0054 64.7494 27.3936C65.0699 26.1957 65.1432 24.0903 64.9142 22.838C64.4471 20.4059 63.174 18.4457 61.2139 17.1208C60.3346 16.5218 59.5469 16.1951 58.2829 15.8503C57.2937 15.5871 57.138 15.5871 53.1995 15.5327L49.1328 15.4873V24.78H49.1237ZM56.3595 19.2806C58.9332 19.8251 60.646 21.9577 60.646 24.6257C60.6369 26.3954 60.0873 27.9199 59.0615 28.9273C58.0448 29.9436 56.5335 30.4337 54.4269 30.4428H53.4285V24.7891V19.1354H54.5368C55.1413 19.1354 55.9565 19.208 56.3595 19.2806Z" fill="white" fill-opacity="0.39"/>
<path d="M66.462 24.7889V34.0726L74.3573 34.0635H82.2435L84.2768 31.2321C85.4034 29.6894 86.3468 28.4189 86.3743 28.4189C86.4201 28.4189 87.3635 29.6894 88.4809 31.2503L90.5234 34.0816H93.088C94.4894 34.0816 95.6435 34.0453 95.6435 34.0181C95.6435 33.9818 94.1322 31.8946 92.3095 29.3808L88.9755 24.8071L92.163 20.3967C93.9215 17.9827 95.4511 15.9046 95.5519 15.7866C95.7534 15.587 95.7534 15.6142 95.7534 17.4745V19.3621H97.6952H99.6369V26.7219V34.0816H101.954H104.272V26.7219V19.3621L106.534 19.344L108.787 19.3077L107.578 17.4201L106.369 15.5325L98.4554 15.5234H90.5326L88.4993 18.3548C87.3727 19.8975 86.4293 21.168 86.4018 21.1862C86.3651 21.1862 85.4217 19.9157 84.3043 18.3548L82.2618 15.5234H74.3756H66.4804V24.7889H66.462ZM80.3933 20.1426C82.2068 22.6291 83.6906 24.7163 83.6906 24.7798C83.6906 24.8434 82.2068 26.9488 80.3841 29.4534L77.0685 34.009L77.0318 32.2303L77.0135 30.4517H73.8902H70.7669V28.3644V26.2863H73.2949H75.8228V24.5258V22.7652H73.2949H70.7669V20.9502V19.1353H73.8902H77.0135V17.3747C77.0135 16.4037 77.0318 15.6142 77.0593 15.6142C77.0868 15.6142 78.5798 17.656 80.3933 20.1426Z" fill="white" fill-opacity="0.39"/>
<path fill-rule="evenodd" clip-rule="evenodd" d="M16.4248 3.18134C13.4938 4.69685 11.0849 5.97641 11.0941 6.03086C11.0941 6.16699 18.1376 9.69713 18.3849 9.68805C18.4948 9.68805 19.3191 9.3069 20.2167 8.85316L21.8471 8.02734L23.624 8.93483L25.4009 9.84233L28.3135 8.54461C32.6917 6.5935 33.1496 6.37571 33.0764 6.31218C32.9848 6.21236 31.4094 5.37747 27.1412 3.15411C25.0803 2.08327 23.0836 1.02151 22.6989 0.812785C22.3142 0.594987 21.9478 0.431641 21.8837 0.431641C21.8196 0.431641 19.3558 1.66583 16.4248 3.18134ZM3.55603 9.78787L0.496831 11.3488V18.2094C0.496831 21.9846 0.533468 25.07 0.588423 25.07C0.63422 25.07 2.13634 24.4257 3.93156 23.6362L7.1831 22.2024V14.9697L8.76765 15.8227C9.99499 16.4852 11.2132 17.1385 12.4405 17.801L14.5288 18.9172L15.4539 18.4998C16.0401 18.2366 16.6171 17.9734 17.1942 17.7103C17.643 17.5015 18.7421 17.0115 19.6397 16.6213C20.5373 16.2311 21.3617 15.8318 21.4807 15.741C21.6364 15.623 19.7313 14.5794 14.4372 11.8842C10.4438 9.8514 7.04571 8.19977 6.89 8.20884C6.73429 8.21792 5.23217 8.92576 3.55603 9.78787ZM33.6168 10.2235C31.5376 11.1582 29.834 11.9568 29.834 12.0022C29.834 12.0475 30.9697 12.7191 32.3528 13.4904C33.745 14.2618 34.8716 14.9333 34.8716 14.9878C34.8716 15.0422 33.6442 15.6321 32.1421 16.2946C30.64 16.9661 26.8481 18.6631 23.7064 20.0697L13.2007 24.7796C10.5537 25.9594 8.1723 27.0302 7.90668 27.1482C2.51187 29.5712 1.01891 30.2427 0.817405 30.3607C0.615901 30.4787 0.570104 31.1502 0.533467 34.5352L0.487671 38.5735L3.21713 39.9529L5.9466 41.3323L9.73853 39.6353C11.8177 38.7005 13.5305 37.8929 13.5305 37.8294C13.5305 37.7658 13.1458 37.5208 12.6787 37.2758C12.2115 37.0308 11.2407 36.4863 10.5171 36.0688C9.80265 35.6514 9.08823 35.2702 8.93252 35.2158C8.77681 35.1613 8.64858 35.0797 8.64858 35.0161C8.64858 34.9617 10.3156 34.1722 12.3581 33.2737C16.3149 31.5223 19.3375 30.1701 25.8314 27.2571C28.7349 25.9594 31.6384 24.6526 34.551 23.3549C37.1064 22.2114 40.074 20.8774 41.1457 20.3874L43.0966 19.498L43.1424 15.4143L43.1882 11.3306L40.4221 9.93307C38.9017 9.16171 37.5919 8.52646 37.5278 8.52646C37.4545 8.52646 35.6959 9.29783 33.6168 10.2235ZM42.3639 24.9611C41.9517 25.1608 41.1457 25.5328 40.5686 25.7869C39.9916 26.041 38.8925 26.5311 38.1323 26.8759L36.7492 27.5021L36.7217 31.0867C36.7034 33.056 36.6302 34.6622 36.5569 34.6531C36.392 34.6259 33.7999 33.31 31.1896 31.9216C29.3027 30.9233 29.1837 30.878 28.744 31.0958C28.4876 31.2228 26.958 31.9034 25.3459 32.6022C23.7339 33.31 22.36 33.9271 22.2959 33.9907C22.2318 34.0451 25.4742 35.7875 29.5134 37.8657L36.8408 41.6408L39.9733 40.0346C41.6952 39.1543 43.1607 38.3466 43.2248 38.2468C43.3805 38.0199 43.3622 24.5709 43.2157 24.5891C43.1516 24.5981 42.7669 24.7615 42.3639 24.9611ZM25.0162 40.7424C24.4758 40.9693 23.9262 41.2052 23.3858 41.4412C21.7463 42.1399 22.0669 42.1672 20.116 41.2052C18.8154 40.5609 18.2567 40.3703 18.0094 40.4611C17.8262 40.5337 16.2599 41.2324 14.5197 42.0129C12.7886 42.7933 11.3048 43.4376 11.2315 43.4376C10.4988 43.4376 11.7169 44.1546 16.3882 46.4868L21.8654 49.2274L24.1735 48.1022C25.4375 47.4851 28.0021 46.2418 29.8523 45.3434C31.7116 44.445 33.2046 43.6917 33.1771 43.6554C33.1496 43.6282 31.5926 42.8387 29.7149 41.8949L26.3077 40.1888L25.0162 40.7424Z" fill="white" fill-opacity="0.39"/>
</svg>
