<svg width="220" height="56" viewBox="0 0 220 56" fill="none" xmlns="http://www.w3.org/2000/svg">
<mask id="mask0_51_567" style="mask-type:alpha" maskUnits="userSpaceOnUse" x="0" y="0" width="56" height="56">
<rect width="55.5819" height="55.0699" fill="#D9D9D9"/>
</mask>
<g mask="url(#mask0_51_567)">
<path d="M10.3292 3.87897C15.5287 10.1983 21.2136 18.1319 22.1495 19.4027C22.1842 19.4714 22.2188 19.5057 22.2535 19.54C22.7388 20.2269 23.1548 20.7421 23.4667 21.1199C24.16 21.9785 24.368 22.2189 23.952 22.4593C23.6054 22.631 23.2934 22.6997 22.9468 22.6997C22.5655 22.6997 22.1148 22.528 21.8029 22.2189C21.5949 22.0129 20.0697 19.7805 17.9899 16.5864C16.3953 14.1136 15.0781 12.0873 15.0434 12.053C14.9741 11.9843 14.9741 11.9843 17.8165 17.1016C19.6191 20.33 20.867 22.6997 20.867 22.8715C20.867 23.1806 20.7976 23.3523 20.4163 23.7644C19.7924 24.4857 19.4804 25.2756 19.2724 26.9241C19.0298 28.7787 18.4058 30.0838 16.6033 32.3505C15.5634 33.6556 15.3901 33.896 15.1128 34.4455C14.7661 35.0981 14.6968 35.4759 14.6621 36.3345C14.6275 37.2274 14.6968 37.8113 14.9741 38.6356C15.2168 39.3911 15.4594 39.872 16.0834 40.868C16.638 41.7266 16.95 42.3448 16.95 42.5852C16.95 42.7912 16.9846 42.7912 17.8512 42.5852C19.8964 42.1387 21.5256 41.3144 22.4615 40.3184C23.0508 39.7002 23.1548 39.3568 23.1894 38.5325C23.1894 37.983 23.1894 37.88 23.0161 37.5365C22.7735 37.0214 22.3228 36.6092 21.3522 35.9224C20.0697 35.0637 19.5497 34.3425 19.3764 33.3809C19.2378 32.5909 19.4111 32.0414 20.1044 30.5646C20.8323 29.0535 21.0056 28.4009 21.1443 26.8554C21.2136 25.8594 21.3176 25.4816 21.6296 25.1725C21.9415 24.8291 22.1842 24.7261 22.9468 24.623C24.16 24.4513 24.9226 24.1422 25.5466 23.5584C26.1012 23.0432 26.3092 22.5624 26.3438 21.8411L26.3785 21.2916L26.0665 20.9482C24.9573 19.6774 9.67057 2.84863 9.60124 2.84863C9.49725 2.84863 9.84389 3.29511 10.3292 3.87897ZM17.5392 37.2961C17.7819 36.8497 17.6432 36.3001 17.2273 36.0254C16.846 35.7506 16.222 35.888 16.222 36.2315C16.222 36.3345 16.2913 36.4032 16.3953 36.4719C16.6033 36.5749 16.638 36.7123 16.4647 36.9527C16.2913 37.2274 16.2913 37.4335 16.4993 37.6052C16.846 37.8456 17.2966 37.7083 17.5392 37.2961ZM25.0266 13.2207C24.5413 13.152 24.5066 13.152 24.7493 13.0833C25.1999 13.0146 26.2398 13.1176 26.9678 13.2894C28.6663 13.7015 30.1915 14.7318 31.8207 16.5521L32.2713 17.0329L32.8953 16.9299C35.5297 16.5177 38.1642 16.8268 40.4173 17.8572C41.0412 18.1319 42.0118 18.7158 42.1158 18.8532C42.1505 18.8875 42.2198 19.1966 42.2891 19.5057C42.4625 20.6047 42.3585 21.429 42.0465 22.0815C41.8732 22.425 41.8385 22.528 41.9772 22.8371C42.0812 23.0775 42.3585 23.2493 42.6358 23.2493C43.1904 23.2493 43.7797 22.3563 44.057 21.1199L44.161 20.6391L44.369 20.8795C45.5475 22.2189 46.4835 24.0735 46.6568 25.3786L46.6914 25.722L46.4835 25.413C46.1368 24.8634 45.7902 24.52 45.3395 24.2109C44.5423 23.6957 43.7104 23.4897 41.4572 23.3866C39.4467 23.2836 38.3028 23.1119 37.1589 22.7341C35.2177 22.1159 34.2472 21.2573 31.9593 18.2693C30.9541 16.9299 30.2955 16.2086 29.6715 15.5904C28.2157 14.2167 26.8291 13.4954 25.0266 13.2207ZM42.5318 16.2086C42.5665 15.3157 42.7051 14.7318 42.9478 14.1823C43.0517 13.9762 43.1211 13.8045 43.1557 13.8045C43.1557 13.8045 43.1211 13.9762 43.0517 14.148C42.8784 14.6631 42.8438 15.3844 42.9824 16.2086C43.1211 17.2733 43.2251 17.4107 44.3343 18.5784C44.8543 19.1279 45.4782 19.7805 45.6862 20.0896L46.1022 20.6047L45.6862 20.2269C45.2009 19.7805 44.057 18.8532 43.8143 18.7501C43.641 18.6471 43.6064 18.6814 43.5024 18.7845C43.3984 18.8875 43.3984 19.0249 43.3637 19.7118C43.3291 20.7764 43.1904 21.429 42.8438 22.1159C42.6704 22.4937 42.6358 22.3906 42.8091 21.9785C42.9478 21.6694 42.9478 21.532 42.9478 20.536C42.9478 18.5097 42.7051 17.9945 41.2839 17.1703C40.9373 16.9642 40.348 16.6551 39.9667 16.4834C39.5854 16.3117 39.3081 16.1743 39.3081 16.1743C39.3427 16.1399 40.7293 16.5521 41.2839 16.7581C42.1158 17.0672 42.2545 17.1016 42.3585 17.0672C42.4625 16.9986 42.4971 16.7925 42.5318 16.2086ZM24.5066 14.6288C24.368 16.2086 24.9919 18.3036 25.9972 19.6774C26.7598 20.7421 27.973 21.5664 28.8396 21.6351C29.4289 21.7037 29.6022 21.4977 29.3249 21.1199C28.9436 20.6047 28.5276 19.7805 28.389 19.4027C28.3197 19.1966 28.1463 18.5441 28.0423 17.9602C27.6264 16.0026 27.2104 15.247 26.2745 14.6975C25.9279 14.4914 25.1999 14.2167 24.784 14.148L24.5413 14.1136L24.5066 14.6288ZM41.3186 29.9464C36.639 28.0575 35.0098 26.4433 35.0098 23.6957C35.0098 23.2836 35.0098 22.9745 35.0444 22.9745C35.0444 22.9745 35.2524 23.1119 35.4604 23.2836C36.3963 24.0392 37.4709 24.3826 40.3826 24.7948C42.1158 25.0352 43.0864 25.2412 43.9877 25.5503C46.8301 26.512 48.5979 28.4009 49.0139 31.0111C49.1526 31.7667 49.0486 33.2091 48.8753 33.9304C48.7019 34.5142 48.2513 35.5789 48.1126 35.6476C48.078 35.6476 48.0433 35.5102 48.0433 35.3385C48.0087 34.3425 47.4887 33.4152 46.6568 32.694C45.6862 31.8354 44.4383 31.1828 41.3186 29.9464ZM37.8175 29.7404C37.8868 29.9464 37.9908 30.3929 38.0255 30.7363C38.4068 32.9687 37.2282 34.7546 34.9751 35.4415C34.7324 35.5102 33.7965 35.7163 32.8606 35.8537C30.9888 36.1628 30.1915 36.3688 29.3596 36.781C28.7703 37.0557 28.0423 37.5022 28.1117 37.5365C28.1117 37.5365 28.2503 37.5022 28.4236 37.4679C29.4636 37.0901 30.6421 36.9184 32.41 36.8153C33.1033 36.781 33.9005 36.7123 34.1778 36.6779C35.7724 36.4719 36.8469 35.991 37.7135 35.1324C38.1988 34.6516 38.4761 34.2051 38.6841 33.5526C38.8228 33.1405 38.8574 33.0031 38.8574 32.2818C38.8574 31.5606 38.8574 31.4232 38.6841 30.9768C38.4761 30.3929 38.2335 29.9464 37.9215 29.603L37.7135 29.3626L37.8175 29.7404ZM40.1747 34.5142C39.5507 33.1748 39.4121 31.9041 39.7587 30.702C39.7934 30.5646 39.8627 30.4616 39.8973 30.4616C39.932 30.4616 40.0707 30.5303 40.2093 30.6333C40.4866 30.8394 41.0759 31.1485 42.6011 31.9727C44.5076 33.0031 45.5822 33.8273 46.3448 34.7203C47.0034 35.5102 47.3847 36.4375 47.5927 37.5709C47.6967 38.1891 47.6274 39.7346 47.4887 40.3528C46.9687 42.3791 45.7902 43.9246 44.0917 44.8519C43.849 44.9893 43.6064 45.0923 43.6064 45.0923C43.5717 45.0923 43.6757 44.8519 43.8143 44.5772C44.369 43.3751 44.4383 42.2074 44.0223 40.9367C43.745 40.1467 43.2251 39.1851 42.1158 37.5365C40.7986 35.6819 40.4866 35.1668 40.1747 34.5142ZM28.5276 38.876C26.5518 39.1851 24.4027 40.2498 22.6695 41.6922L22.1495 42.1387L22.6001 42.2074C24.9573 42.5852 25.6159 42.8943 27.2451 44.5772C28.181 45.5388 28.493 45.7792 29.2902 45.9509C30.4341 46.26 31.578 45.7105 31.9593 44.6802C32.1327 44.2337 32.098 43.4781 31.9247 43.066C31.4394 42.173 30.0875 41.8639 29.3942 42.5165C28.8396 43.066 29.0129 43.8903 29.7062 44.062C29.8795 44.0963 29.8449 44.0963 29.6715 43.9933C29.3596 43.8559 29.2209 43.6499 29.2209 43.3751C29.2209 42.6539 30.0182 42.2761 30.7808 42.6195C31.3354 42.8599 31.5434 43.2034 31.5434 43.7529C31.5434 44.6458 30.7808 45.2984 29.9142 45.1954C29.4636 45.1267 28.8743 44.8519 28.5623 44.5085C27.7997 43.6499 28.077 42.2761 29.1516 41.7609C29.9835 41.3488 31.0581 41.4518 31.89 42.0013C32.8606 42.6195 33.2766 43.2034 34.1085 45.1267C34.3858 45.7449 34.7324 46.4318 34.8711 46.6722C35.6684 47.8399 36.6043 48.4237 37.7482 48.4237C38.3721 48.4237 38.8574 48.3207 39.4467 48.0116C39.8973 47.8055 40.5213 47.3591 40.452 47.3247C40.452 47.3247 40.244 47.3591 40.036 47.4621C38.7881 47.9429 37.5402 47.9086 36.8123 47.3934C36.3616 47.05 35.9803 46.3974 35.7724 45.5388C35.7377 45.4014 35.6337 44.7489 35.5297 44.0963C35.2871 42.4821 35.0444 41.7266 34.4551 40.9023C33.8659 40.0437 32.7566 39.3225 31.5087 39.0134C30.7808 38.8073 29.3596 38.7386 28.5276 38.876ZM25.7545 26.3403C25.9279 25.7221 26.4825 25.1039 27.0371 24.9321C27.3837 24.8291 28.1463 24.8978 28.493 25.0695C29.1516 25.413 29.6715 26.2029 29.5329 26.7524C29.3942 27.4393 28.285 27.9888 27.0024 27.9888C26.3438 27.9888 26.1012 27.9201 25.8585 27.5766C25.7199 27.3706 25.6505 26.718 25.7545 26.3403ZM28.3197 25.3099C28.6663 25.516 28.7356 25.8251 28.5276 26.0998C28.389 26.3059 27.973 26.4776 27.661 26.4776C27.2104 26.4776 26.6905 26.1342 26.6905 25.8594C26.7251 25.2412 27.6957 24.9321 28.3197 25.3099ZM128.775 27.0271C127.735 23.5927 129.468 20.7078 133.143 19.8148C134.183 19.5401 138.966 19.6774 139.798 19.9865C140.11 20.0896 140.214 20.536 140.249 21.429C140.249 22.1502 140.318 23.0088 140.422 23.3523C140.561 23.8674 140.491 23.9705 139.937 23.9705C139.452 23.9705 139.14 23.6614 138.724 22.8028C138.065 21.3946 137.233 20.9482 135.327 20.9482C132.9 20.9482 131.132 22.5624 131.41 24.52C131.583 25.7907 132.865 27.0615 135.777 28.7787C138.516 30.4272 140.11 31.7667 140.769 32.9687C142.467 36.1971 141.011 39.6316 137.233 41.3831C135.292 42.2761 132.034 42.3791 129.711 41.5892L128.255 41.1084V38.7729C128.255 36.6779 128.29 36.4375 128.775 36.4375C129.191 36.4375 129.364 36.7123 129.503 37.5365C129.85 39.5972 131.444 40.868 133.697 40.868C135.916 40.868 137.476 39.6659 138.065 37.5022C138.308 36.5749 138.273 36.2315 137.788 35.2011C137.198 33.9647 136.159 33.1748 132.657 31.1485C130.612 30.0151 129.226 28.504 128.775 27.0271ZM59.933 21.1886C59.4477 21.1886 59.2744 21.0169 59.2744 20.6391C59.2744 20.1239 59.4477 20.0896 63.226 20.0896C66.7271 20.0896 67.143 20.1582 67.0737 20.536C67.039 20.7764 66.5538 21.1199 65.9991 21.2916L65.0285 21.6007L64.9592 28.6413C64.8899 33.3465 64.9939 36.0597 65.2019 36.8153C65.8258 39.0134 67.767 40.2841 70.5054 40.2841C72.4119 40.2841 73.5212 39.8376 74.9077 38.5325C76.3983 37.1244 76.6409 35.785 76.6409 28.813C76.6409 21.9442 76.5022 21.3946 75.0117 21.2573C74.3184 21.1886 74.1104 21.0512 74.1104 20.6391C74.1104 20.1239 74.3184 20.0896 77.4728 20.0896C80.6619 20.0896 80.8352 20.1239 80.8352 20.6391C80.8352 20.9825 80.6619 21.1886 80.3499 21.1886C79.0674 21.1886 79.0327 21.326 78.8594 28.8474C78.6861 36.6779 78.5127 37.6052 76.9182 39.4942C76.4676 40.0437 75.3583 40.8336 74.4917 41.2801C73.0705 41.967 72.5852 42.07 70.0895 42.07C67.767 42.07 67.039 41.967 65.8951 41.4175C64.1966 40.6619 63.122 39.6659 62.2901 38.1891C61.7355 37.1588 61.6662 36.6092 61.5622 29.603C61.3542 21.5664 61.2849 21.1886 59.933 21.1886ZM86.1388 21.1886C85.5148 21.1886 85.3068 21.0512 85.3068 20.6391C85.3068 20.1239 85.4801 20.0896 88.1839 20.1239L91.061 20.1583L92.4476 21.7381C93.2102 22.5967 95.6713 25.3099 97.9244 27.714C100.178 30.1525 102.777 32.9687 103.679 33.9991C104.58 35.0294 105.446 35.8537 105.585 35.8537C105.724 35.8537 105.793 32.9687 105.758 29.1908L105.654 22.528L104.857 21.8755C104.441 21.4977 103.748 21.2229 103.401 21.2229C102.916 21.2229 102.708 21.0856 102.708 20.6734C102.708 20.1239 102.847 20.1239 106.556 20.1926C109.71 20.2613 110.403 20.33 110.403 20.6734C110.403 20.9138 110.022 21.1542 109.467 21.2573C108.947 21.3603 108.393 21.6007 108.22 21.7724C107.977 22.0128 107.873 24.9321 107.804 31.9041L107.734 41.6922H106.902C106.209 41.6922 105.377 40.9023 100.94 36.0941C98.0977 33.0031 94.77 29.3626 93.5568 27.9544C92.3436 26.5463 91.269 25.413 91.1303 25.413C90.8184 25.3786 90.8877 37.8456 91.1997 39.0134C91.4423 39.9407 91.6503 40.078 92.7249 40.3871C93.6261 40.6275 93.9728 40.868 93.9728 41.2114C93.9728 41.6579 93.6261 41.6922 90.0558 41.6922C86.4161 41.6922 86.1388 41.6579 86.1388 41.1771C86.1388 40.8336 86.4161 40.5932 86.9707 40.4902C88.6692 40.1467 88.8079 39.6316 88.8772 31.4232C88.9465 26.8211 88.8425 23.627 88.6692 22.9401C88.3919 21.7381 87.56 21.1886 86.1388 21.1886ZM115.534 21.1886C114.944 21.1886 114.736 21.0512 114.736 20.6391C114.736 20.1239 114.91 20.0896 118.931 20.0896C122.952 20.0896 123.125 20.1239 123.125 20.6391C123.125 21.0512 122.952 21.1886 122.432 21.1886C122.05 21.1886 121.461 21.429 121.149 21.7381C120.595 22.2876 120.595 22.5624 120.664 31.0111C120.733 39.2881 120.768 39.7689 121.288 40.1124C121.6 40.3184 122.12 40.4902 122.466 40.4902C122.917 40.4902 123.125 40.6619 123.125 41.0397C123.125 41.5548 122.952 41.5892 118.931 41.5892C115.014 41.5892 114.736 41.5549 114.736 41.074C114.736 40.6962 115.014 40.5245 115.846 40.3871C117.509 40.1124 117.579 39.5972 117.475 30.0151C117.405 22.3563 117.371 21.8755 116.851 21.4977C116.539 21.3603 115.95 21.1886 115.534 21.1886ZM144.824 21.1886C144.443 21.1886 144.166 20.9825 144.062 20.6391C143.923 20.0896 144.062 20.0896 148.083 20.0896C152.069 20.0896 152.242 20.1239 152.242 20.6391C152.242 21.0512 152.069 21.1886 151.445 21.1886C149.677 21.1886 149.712 21.4977 152.381 28.7444C153.733 32.4192 155.05 35.9224 155.328 36.5062L155.778 37.5709L157.927 31.9384C160.458 25.3099 160.77 24.0735 160.354 22.8715C160.042 22.0128 158.898 21.1886 158.031 21.1886C157.789 21.1886 157.581 20.9482 157.581 20.6391C157.581 20.1239 157.754 20.0896 161.914 20.0896C166.073 20.0896 166.247 20.1239 166.247 20.6391C166.247 21.0169 166.073 21.1886 165.588 21.1886C164.409 21.1886 163.889 21.8068 164.063 23.0088C164.236 24.2452 169.054 37.5709 169.262 37.3648C169.574 37.0557 174.913 22.6997 174.913 22.1502C174.913 21.4633 174.427 21.1886 173.353 21.1886C172.867 21.1886 172.659 21.0512 172.659 20.6391C172.659 20.1239 172.833 20.0896 176.022 20.0896C178.864 20.0896 179.384 20.1583 179.384 20.5017C179.384 20.7421 179.038 21.0512 178.622 21.1886C177.651 21.532 177.408 21.9098 176.23 24.9665C175.71 26.3059 174.046 30.4959 172.555 34.3082C171.065 38.0861 169.782 41.3488 169.678 41.5548C169.609 41.7609 169.124 41.9326 168.638 41.9326H167.737L165.727 36.7466C164.617 33.896 163.3 30.5303 162.815 29.2252C161.983 27.0271 161.914 26.9241 161.602 27.5766C161.428 27.9544 160.076 31.3202 158.655 35.0981L156.021 41.967L155.05 41.8983L154.08 41.8296L150.336 32.1788C148.256 26.7867 146.35 22.2533 146.003 21.8755C145.726 21.4977 145.171 21.1886 144.824 21.1886ZM200.841 21.326C200.806 21.2229 200.806 20.8451 200.806 20.8451C200.806 20.8451 200.806 20.7078 200.841 20.6391C200.91 20.5704 200.91 20.5704 201.118 20.536C201.881 20.4673 203.406 20.33 204.654 20.2956C204.758 20.2956 204.897 20.2956 205.035 20.2956C206.422 20.2269 208.918 20.1582 210.651 20.2269C213.944 20.3987 216.266 21.9785 217.064 24.5543C217.861 27.1645 217.445 29.603 216.336 31.1485C215.261 32.694 213.424 34.0334 210.374 33.9647C207.878 33.896 207.185 33.4152 206.665 33.0718C206.561 33.0031 206.457 32.9344 206.318 32.8657V36.1971C206.353 38.4638 206.353 39.5629 206.526 39.9407C206.769 40.4902 207.289 40.7993 208.363 41.074C208.363 41.074 208.848 41.1771 208.952 41.3144C209.091 41.4175 209.091 41.6922 209.091 41.6922C209.091 41.6922 209.126 41.9326 209.022 42.07C208.918 42.2074 208.744 42.173 208.744 42.173L204.099 42.1387H201.292C201.292 42.1387 201.014 42.2074 200.876 42.07C200.772 41.967 200.772 41.6922 200.772 41.6922C200.772 41.6922 200.806 41.4175 200.91 41.3144C201.049 41.2114 201.534 41.074 201.534 41.074C202.609 40.7649 203.094 40.4558 203.337 39.872C203.545 39.3911 203.545 38.4982 203.545 31.1828C203.545 24.2452 203.545 22.9401 203.372 22.5967C203.129 22.0472 202.54 21.9098 201.708 21.7038C201.534 21.6694 201.361 21.6351 201.188 21.5664C201.188 21.4633 200.876 21.429 200.841 21.326ZM187.946 20.2613C187.946 20.2613 187.738 20.33 187.426 20.4674L186.317 21.0169L185.52 22.9745C185.069 24.0392 184.306 26.0312 183.752 27.3706C182.781 29.809 182.123 31.3889 181.464 33.0718C181.256 33.5526 180.667 35.0637 180.112 36.4032C179.558 37.7426 179.038 39.0134 178.934 39.2194C178.899 39.2538 178.899 39.2881 178.864 39.3225C178.552 39.872 178.032 40.868 177.131 41.0053C177.131 41.0053 176.611 41.0397 176.438 41.2458C176.264 41.4175 176.264 41.5892 176.264 41.5892V41.8296C176.264 41.8296 176.264 41.9326 176.403 42.0013C176.507 42.07 176.646 42.07 176.646 42.07L180.008 42.0357H183.509C183.509 42.0357 183.752 42.07 183.856 42.0013C183.96 41.9326 183.96 41.7953 183.96 41.7953V41.5548C183.96 41.5548 183.925 41.2801 183.786 41.1771C183.648 41.074 183.128 41.0053 183.128 41.0053C181.741 40.8336 181.499 39.7689 181.672 38.8416C181.741 38.3952 182.331 36.6779 182.955 34.9607L183.163 34.3769L186.802 34.3425C188.813 34.3425 190.546 34.3425 190.65 34.3769C190.823 34.4112 191.031 34.8577 191.69 36.4375C192.66 38.8416 192.764 39.1507 192.522 39.5972C192.522 39.6316 192.487 39.6659 192.487 39.7002C192.279 40.1467 191.898 40.971 190.893 41.074C190.893 41.074 190.373 41.1084 190.234 41.2458C190.095 41.4175 190.13 41.5892 190.13 41.5892V41.8296C190.13 41.8296 190.165 41.967 190.234 42.0357C190.303 42.1044 190.407 42.07 190.407 42.07L193.735 42.0357H198.38C198.38 42.0357 198.553 42.07 198.623 42.0013C198.657 41.9326 198.692 41.8639 198.692 41.8639V41.5548C198.692 41.5548 198.657 41.3831 198.588 41.2801C198.484 41.1771 197.895 41.074 197.895 41.074C197.132 40.9366 196.751 40.3184 196.439 39.8376C196.369 39.7346 196.3 39.5972 196.231 39.5285C196.092 39.3568 195.607 38.3608 195.26 37.4335C194.879 36.4719 194.047 34.3425 193.388 32.694C192.73 31.0454 191.828 28.71 191.378 27.5423C190.927 26.3746 190.026 24.1422 189.437 22.5967C189.333 22.3563 189.263 22.1159 189.159 21.9098C188.743 20.8795 188.57 20.433 188.535 20.3987C188.397 20.0552 187.946 20.2613 187.946 20.2613Z" fill="white" fill-opacity="0.39"/>
</g>
<mask id="mask1_51_567" style="mask-type:alpha" maskUnits="userSpaceOnUse" x="51" y="10" width="169" height="46">
<rect width="167.704" height="44.6256" transform="matrix(-1 0 0 1 219.452 10.4443)" fill="#D9D9D9"/>
</mask>
<g mask="url(#mask1_51_567)">
<path d="M24.6943 38.876C25.5262 38.7386 26.9478 38.8076 27.6757 39.0137C28.9235 39.3228 30.0327 40.0438 30.622 40.9023C31.2113 41.7266 31.4546 42.4825 31.6972 44.0967C31.8012 44.7491 31.9047 45.4017 31.9394 45.5391C32.1474 46.3976 32.5288 47.0501 32.9794 47.3936C33.7074 47.9087 34.9552 47.9427 36.2031 47.4619C36.4094 47.3597 36.616 47.3257 36.6191 47.3252C36.6872 47.3602 36.0644 47.8058 35.6142 48.0117C35.0249 48.3208 34.5389 48.4238 33.915 48.4238C32.7712 48.4237 31.8352 47.8395 31.038 46.6719C30.8992 46.4311 30.5525 45.7448 30.2753 45.127C29.4434 43.2037 29.0281 42.6192 28.0576 42.001C27.2256 41.4515 26.1502 41.3486 25.3183 41.7607C24.2439 42.276 23.9669 43.6502 24.7294 44.5088C25.0414 44.8521 25.6305 45.1266 26.081 45.1953C26.9476 45.2983 27.7109 44.6459 27.7109 43.7529C27.7109 43.2036 27.5025 42.8605 26.9482 42.6201C26.1857 42.2767 25.3878 42.6539 25.3876 43.375C25.3876 43.6498 25.5268 43.8558 25.8388 43.9932C26.0121 44.0962 26.0463 44.0968 25.873 44.0625C25.1799 43.8907 25.0069 43.0661 25.5615 42.5166C26.2548 41.8642 27.6065 42.1735 28.0917 43.0664C28.265 43.4786 28.3002 44.2343 28.1269 44.6807C27.7455 45.7109 26.6008 46.2603 25.457 45.9512C24.6599 45.7795 24.3478 45.5387 23.412 44.5771C21.783 42.8944 21.1244 42.5848 18.7675 42.207L18.3163 42.1387L18.8369 41.6924C20.5699 40.2501 22.7186 39.1852 24.6943 38.876ZM36.0644 30.4619C36.0991 30.4619 36.2382 30.5308 36.3769 30.6338C36.6544 30.8399 37.2442 31.1489 38.7685 31.9727C40.6749 33.003 41.7491 33.8278 42.5117 34.7207C43.1702 35.5106 43.5517 36.4379 43.7597 37.5713C43.8636 38.1895 43.7948 39.7341 43.6562 40.3525C43.1363 42.3788 41.9571 43.9243 40.2587 44.8516C40.0161 44.9889 39.7734 45.0928 39.7734 45.0928C39.7389 45.0924 39.8428 44.8517 39.9814 44.5771C40.536 43.3751 40.6053 42.2072 40.1894 40.9365C39.9121 40.1467 39.3921 39.1852 38.2831 37.5371C36.9661 35.6827 36.6537 35.1671 36.3417 34.5146C35.7178 33.1752 35.5791 31.9042 35.9257 30.7021C35.9604 30.5648 36.0297 30.462 36.0644 30.4619ZM5.76849 2.84863C5.85459 2.86723 21.1236 19.6769 22.2333 20.9482L22.5458 21.292L22.5107 21.8408C22.476 22.562 22.2684 23.0434 21.7138 23.5586C21.0899 24.1424 20.3272 24.4513 19.1142 24.623C18.3516 24.7261 18.1088 24.8294 17.7968 25.1729C17.4849 25.4819 17.3808 25.8596 17.3115 26.8555C17.1728 28.4009 16.9993 29.0535 16.2714 30.5645C15.5782 32.0412 15.4052 32.591 15.5439 33.3809C15.7172 34.3425 16.2369 35.0642 17.5195 35.9229C18.4899 36.6096 18.9409 37.022 19.1835 37.5371C19.3566 37.8801 19.3564 37.9834 19.3564 38.5322C19.3217 39.3564 19.2179 39.7003 18.6288 40.3184C17.693 41.3143 16.0635 42.1385 14.0185 42.585C13.1519 42.791 13.1171 42.791 13.1171 42.585C13.1168 42.3443 12.8052 41.7262 12.2509 40.8682C11.627 39.8722 11.3842 39.3912 11.1415 38.6357C10.8643 37.8116 10.7944 37.2277 10.829 36.335C10.8637 35.4763 10.9336 35.0979 11.2802 34.4453C11.5574 33.8961 11.7308 33.6553 12.7704 32.3506C14.5729 30.0839 15.1967 28.7784 15.4394 26.9238C15.6473 25.2758 15.9592 24.4857 16.5829 23.7646C16.964 23.3527 17.034 23.1809 17.0341 22.8721C17.0341 22.7003 15.7859 20.3299 13.9833 17.1016C11.1411 11.9845 11.1416 11.984 11.2109 12.0527C11.2455 12.0871 12.5626 14.1141 14.1572 16.5869C16.2359 19.7792 17.7605 22.0109 17.9697 22.2188C18.2816 22.5279 18.7329 22.7002 19.1142 22.7002C19.4607 22.7002 19.7726 22.6307 20.1191 22.459C20.5348 22.2186 20.3269 21.9786 19.6337 21.1201C19.3218 20.7423 18.9061 20.2269 18.4208 19.54C18.3862 19.5057 18.351 19.471 18.3163 19.4023C17.3795 18.1303 11.695 10.1976 6.49603 3.87891C6.01084 3.29516 5.66452 2.84863 5.76849 2.84863ZM201.202 20.2959C202.589 20.2272 205.085 20.1588 206.818 20.2275C210.111 20.3994 212.433 21.9789 213.23 24.5547C214.028 27.1648 213.612 29.603 212.503 31.1484C211.428 32.6939 209.591 34.0334 206.541 33.9648C204.046 33.8962 203.352 33.4157 202.832 33.0723C202.728 33.0036 202.624 32.9348 202.485 32.8662V36.1973C202.52 38.4636 202.52 39.5625 202.693 39.9404C202.936 40.4899 203.456 40.7995 204.53 41.0742C204.536 41.0754 205.015 41.178 205.119 41.3145C205.258 41.4175 205.258 41.6924 205.258 41.6924C205.258 41.6924 205.292 41.9329 205.188 42.0703C205.084 42.2074 204.911 42.1729 204.911 42.1729L200.267 42.1387H197.459C197.459 42.1387 197.182 42.2075 197.043 42.0703C196.94 41.968 196.938 41.696 196.938 41.6924C196.938 41.6924 196.973 41.4176 197.077 41.3145C197.214 41.2129 197.687 41.0781 197.701 41.0742C198.776 40.7651 199.261 40.4559 199.504 39.8721C199.712 39.3912 199.712 38.498 199.712 31.1826C199.712 24.2457 199.712 22.9402 199.539 22.5967C199.296 22.0472 198.707 21.9101 197.875 21.7041C197.702 21.6698 197.528 21.6351 197.354 21.5664C197.354 21.4634 197.042 21.4292 197.008 21.3262C196.974 21.2251 196.974 20.8602 196.974 20.8457C196.974 20.8457 196.973 20.7085 197.008 20.6396C197.077 20.571 197.077 20.5704 197.285 20.5361C198.048 20.4674 199.573 20.3302 200.821 20.2959H201.202ZM129.31 19.8145C130.349 19.5397 135.134 19.6772 135.966 19.9863C136.277 20.0895 136.381 20.5363 136.416 21.4287C136.416 22.1499 136.485 23.0091 136.589 23.3525C136.727 23.8675 136.659 23.9706 136.104 23.9707C135.619 23.9707 135.307 23.6613 134.891 22.8027C134.232 21.3949 133.4 20.9483 131.494 20.9482C129.068 20.9482 127.3 22.5629 127.577 24.5205C127.751 25.7911 129.033 27.0623 131.944 28.7793C134.682 30.4277 136.277 31.7668 136.935 32.9688C138.634 36.197 137.178 39.6312 133.4 41.3828C131.459 42.2758 128.2 42.3788 125.878 41.5889L124.422 41.1084V38.7734C124.422 36.6784 124.457 36.4375 124.942 36.4375C125.358 36.4375 125.531 36.7129 125.67 37.5371C126.017 39.5975 127.611 40.8681 129.864 40.8682C132.083 40.8682 133.643 39.6657 134.232 37.502C134.475 36.575 134.44 36.2313 133.955 35.2012C133.366 33.9648 132.325 33.1748 128.824 31.1484C126.779 30.0151 125.393 28.504 124.942 27.0273C123.902 23.593 125.635 20.7075 129.31 19.8145ZM184.113 20.2617C184.113 20.2617 184.563 20.0556 184.702 20.3984C184.737 20.4328 184.91 20.8798 185.326 21.9102C185.43 22.1161 185.5 22.3564 185.603 22.5967C186.193 24.142 187.094 26.3742 187.545 27.542C187.995 28.7097 188.897 31.0458 189.556 32.6943C190.214 34.3428 191.046 36.472 191.428 37.4336C191.774 38.3601 192.258 39.3554 192.397 39.5283C192.467 39.597 192.536 39.7349 192.605 39.8379C192.917 40.3187 193.299 40.9368 194.061 41.0742C194.061 41.0742 194.651 41.1773 194.755 41.2803C194.823 41.3812 194.858 41.548 194.859 41.5547V41.8643C194.859 41.8656 194.824 41.9332 194.79 42.001C194.721 42.0697 194.547 42.0361 194.547 42.0361H189.902L186.574 42.0703C186.569 42.0721 186.469 42.1025 186.401 42.0361C186.334 41.9692 186.299 41.837 186.297 41.8301V41.4824C186.305 41.418 186.332 41.3322 186.401 41.2461C186.539 41.1101 187.05 41.0749 187.06 41.0742C188.065 40.9712 188.446 40.1467 188.654 39.7002C188.654 39.666 188.688 39.6318 188.688 39.5977C188.931 39.1512 188.828 38.8416 187.857 36.4375C187.199 34.8586 186.991 34.4118 186.817 34.377C186.713 34.3426 184.98 34.3428 182.97 34.3428L179.33 34.377L179.122 34.9609C178.498 36.6782 177.908 38.3953 177.839 38.8418C177.666 39.7691 177.908 40.8341 179.295 41.0059C179.295 41.0059 179.815 41.0737 179.954 41.1768C180.09 41.2779 180.126 41.5449 180.127 41.5547V41.7949C180.127 41.7949 180.127 41.9322 180.023 42.001C179.922 42.0679 179.688 42.0378 179.677 42.0361H176.176L172.812 42.0703C172.804 42.0702 172.671 42.0675 172.57 42.001C172.436 41.9346 172.432 41.8367 172.432 41.8301V41.5889C172.432 41.5791 172.437 41.4126 172.604 41.2461C172.775 41.0433 173.282 41.007 173.298 41.0059C174.199 40.8685 174.719 39.8718 175.031 39.3223C175.066 39.288 175.066 39.254 175.101 39.2197C175.205 39.0137 175.725 37.7427 176.279 36.4033C176.834 35.0643 177.423 33.5536 177.631 33.0723C178.289 31.3895 178.948 29.8094 179.919 27.3711C180.473 26.0317 181.236 24.0393 181.686 22.9746L182.484 21.0166L183.594 20.4678C183.901 20.3323 184.108 20.2635 184.113 20.2617ZM73.6396 20.0898C76.8287 20.0898 77.0019 20.1245 77.0019 20.6396C77.0017 20.9828 76.8284 21.1885 76.5165 21.1885C75.2344 21.1885 75.1996 21.3271 75.0263 28.8477C74.853 36.6781 74.6794 37.6052 73.0849 39.4941C72.6343 40.0436 71.5256 40.8338 70.6591 41.2803C69.2379 41.9671 68.7524 42.0703 66.2568 42.0703C63.9345 42.0703 63.2062 41.9674 62.0624 41.418C60.3639 40.6624 59.2889 39.6662 58.457 38.1895C57.9024 37.1591 57.8334 36.6094 57.7294 29.6035C57.5215 21.5678 57.452 21.1886 56.1005 21.1885C55.6154 21.1885 55.4415 21.0171 55.4413 20.6396C55.4413 20.1245 55.6151 20.0898 59.3935 20.0898C62.8939 20.0898 63.3104 20.1584 63.2411 20.5361C63.2065 20.7765 62.7206 21.1203 62.166 21.292L61.1953 21.6006L61.1259 28.6416C61.0566 33.3467 61.1611 36.0599 61.3691 36.8154C61.993 39.0135 63.9344 40.2842 66.6728 40.2842C68.5791 40.2841 69.6887 39.8373 71.0751 38.5322C72.5653 37.1243 72.8075 35.7845 72.8076 28.8135C72.8076 21.9446 72.6692 21.3952 71.1786 21.2578C70.4857 21.1891 70.2774 21.0514 70.2773 20.6396C70.2773 20.1245 70.4855 20.0898 73.6396 20.0898ZM172.188 20.0898C175.031 20.0898 175.552 20.1585 175.552 20.502C175.552 20.7423 175.205 21.0511 174.789 21.1885C173.818 21.5319 173.575 21.9101 172.396 24.9668C171.876 26.3066 170.213 30.4967 168.723 34.3086C167.233 38.0845 165.951 41.3457 165.846 41.5547C165.776 41.7607 165.291 41.9326 164.806 41.9326H163.904L161.893 36.7471C160.784 33.8967 159.468 30.5309 158.982 29.2256C158.15 27.0275 158.08 26.9246 157.768 27.5771C157.594 27.957 156.243 31.3222 154.822 35.0986L152.188 41.9668L150.247 41.8301L146.503 32.1787C144.423 26.7871 142.517 22.2543 142.17 21.876C141.893 21.4982 141.338 21.1885 140.991 21.1885C140.61 21.1883 140.334 20.9826 140.229 20.6396C140.091 20.0901 140.229 20.0898 144.25 20.0898C148.236 20.0898 148.409 20.1245 148.409 20.6396C148.409 21.0514 148.236 21.1885 147.612 21.1885C145.845 21.1885 145.879 21.498 148.548 28.7441C149.9 32.4185 151.218 35.9213 151.495 36.5059L151.945 37.5713L154.095 31.9385C156.625 25.3106 156.936 24.074 156.52 22.8721C156.208 22.0135 155.065 21.1885 154.198 21.1885C153.956 21.1883 153.748 20.9484 153.748 20.6396C153.748 20.1245 153.921 20.0898 158.081 20.0898C162.24 20.0898 162.414 20.1245 162.414 20.6396C162.414 21.0171 162.24 21.1885 161.755 21.1885C160.577 21.1886 160.056 21.807 160.229 23.0088C160.403 24.2451 165.221 37.5683 165.43 37.3652C165.742 37.0561 171.08 22.7006 171.08 22.1504C171.08 21.4635 170.594 21.1885 169.519 21.1885C169.035 21.1884 168.826 21.0513 168.826 20.6396C168.826 20.1245 169 20.0898 172.188 20.0898ZM84.3515 20.124L87.2285 20.1582L88.6142 21.7383C89.3768 22.5969 91.8386 25.3098 94.0917 27.7139C96.3448 30.1522 98.9443 32.9686 99.8456 33.999C100.746 35.0286 101.612 35.8523 101.752 35.8535C101.891 35.8535 101.96 32.9691 101.926 29.1914L101.821 22.5283L101.024 21.876C100.608 21.4982 99.9149 21.2227 99.5683 21.2227C99.0832 21.2226 98.875 21.0857 98.8749 20.6738C98.8749 20.1243 99.0138 20.1237 102.723 20.1924C105.877 20.2611 106.57 20.3304 106.57 20.6738C106.57 20.9141 106.189 21.1548 105.635 21.2578C105.115 21.3608 104.56 21.6007 104.387 21.7725C104.144 22.0129 104.04 24.9324 103.971 31.9043L103.901 41.6924H103.069C102.376 41.6923 101.544 40.9016 97.1074 36.0938C94.265 33.0028 90.9368 29.3622 89.7236 27.9541C88.5115 26.5474 87.4379 25.415 87.2978 25.4131C86.9858 25.3787 87.0552 37.846 87.3671 39.0137C87.6097 39.9407 87.8173 40.0787 88.8915 40.3877C89.7928 40.6281 90.1396 40.8685 90.1396 41.2119C90.1394 41.658 89.7919 41.6924 86.2226 41.6924C82.5832 41.6924 82.3056 41.6576 82.3056 41.1768C82.3058 40.8336 82.5833 40.5932 83.1376 40.4902C84.8361 40.1468 84.9746 39.6317 85.0439 31.4238C85.1132 26.8218 85.0092 23.6274 84.8359 22.9404C84.5586 21.7384 83.7268 21.1885 82.3056 21.1885C81.6821 21.1884 81.4737 21.0514 81.4736 20.6396C81.4736 20.1245 81.6477 20.0897 84.3515 20.124ZM115.098 20.0898C119.119 20.0898 119.292 20.1245 119.292 20.6396C119.292 21.0514 119.118 21.1885 118.599 21.1885C118.217 21.1886 117.628 21.4292 117.316 21.7383C116.762 22.2878 116.762 22.5625 116.831 31.0107C116.9 39.2878 116.935 39.7689 117.455 40.1123C117.767 40.3184 118.287 40.4902 118.634 40.4902C119.084 40.4903 119.292 40.6623 119.292 41.04C119.292 41.555 119.118 41.5889 115.098 41.5889C111.181 41.5889 110.903 41.555 110.903 41.0742C110.903 40.6964 111.181 40.5251 112.013 40.3877C113.676 40.1129 113.746 39.5974 113.642 30.0156C113.572 22.3568 113.537 21.8758 113.018 21.498C112.706 21.3607 112.117 21.1886 111.701 21.1885C111.112 21.1885 110.903 21.0514 110.903 20.6396C110.903 20.1245 111.077 20.0898 115.098 20.0898ZM34.0888 29.6035C34.4006 29.9469 34.6436 30.393 34.8515 30.9766C35.0248 31.423 35.0244 31.561 35.0244 32.2822C35.0243 33.0032 34.9901 33.1407 34.8515 33.5527C34.6435 34.2053 34.3661 34.652 33.8808 35.1328C33.0142 35.9914 31.9392 36.4717 30.3447 36.6777C30.0672 36.7121 29.2702 36.7811 28.5771 36.8154C26.8093 36.9185 25.6307 37.09 24.5908 37.4678C24.4224 37.5011 24.2869 37.5352 24.2792 37.5371C24.2099 37.5028 24.9371 37.056 25.5263 36.7812C26.3582 36.3691 27.1557 36.1626 29.0273 35.8535C29.9632 35.7161 30.8999 35.5101 31.1425 35.4414C33.3954 34.7544 34.5736 32.9686 34.1923 30.7363C34.1576 30.3929 34.0536 29.9463 33.9843 29.7402L33.8808 29.3623L34.0888 29.6035ZM31.2119 22.9746C31.2197 22.9798 31.4239 23.1158 31.6279 23.2842C32.5637 24.0395 33.6385 24.3829 36.5497 24.7949C38.2829 25.0353 39.254 25.2417 40.1552 25.5508C42.9972 26.5124 44.7645 28.401 45.1806 31.0107C45.3193 31.7663 45.2152 33.2094 45.0419 33.9307C44.8688 34.5139 44.4194 35.5766 44.2802 35.6475C44.2456 35.6475 44.2109 35.5105 44.2109 35.3389C44.1762 34.343 43.6559 33.4155 42.8242 32.6943C41.8536 31.8357 40.605 31.1827 37.4853 29.9463C32.8062 28.0575 31.1769 26.4435 31.1767 23.6963C31.1767 23.2842 31.1772 22.9746 31.2119 22.9746ZM205.535 21.7725C204.564 21.7382 202.624 21.91 202.555 23.2148C202.485 23.4557 202.485 25.0696 202.485 27.5762L202.519 31.5605L202.935 31.7666H202.971C203.213 31.9039 203.491 32.0415 204.011 32.1445C205.64 32.4535 208.066 32.144 209.279 31.0107C210.492 29.8774 210.527 28.0914 210.527 26.958C210.423 25.172 209.695 21.7725 205.535 21.7725ZM183.316 25.1719C183.004 24.4165 182.9 24.2111 182.796 24.3828C182.76 24.4207 182.587 24.9681 182.38 25.5498C181.029 29.3948 180.405 31.1469 180.301 31.457C180.231 31.6631 180.162 31.8698 180.162 31.9385C180.165 32.0069 181.274 32.041 183.143 32.041C184.772 32.041 186.124 32.0068 186.124 32.0068C186.124 32.0061 185.985 31.6287 185.811 31.1826C185.638 30.7704 185.188 29.7054 184.842 28.8125C184.46 27.9539 184.044 26.9578 183.905 26.5801C183.767 26.2365 183.49 25.5839 183.316 25.1719ZM23.204 24.9326C23.5506 24.8296 24.3134 24.8976 24.6601 25.0693C25.3187 25.4128 25.8388 26.2034 25.7001 26.7529C25.5612 27.4396 24.452 27.9892 23.1699 27.9893C22.5113 27.9893 22.2679 27.9205 22.0253 27.5771C21.8867 27.3711 21.818 26.7187 21.9218 26.3408C22.0951 25.7227 22.6495 25.1044 23.204 24.9326ZM20.916 13.083C21.3665 13.0143 22.4068 13.1174 23.1347 13.2891C24.8332 13.7012 26.359 14.7315 27.9882 16.5518L28.4384 17.0332L29.0624 16.9297C31.6967 16.5176 34.3309 16.8272 36.5839 17.8574C37.2079 18.1322 38.1791 18.7161 38.2831 18.8535C38.3179 18.889 38.3868 19.1975 38.456 19.5059C38.6293 20.6049 38.5258 21.4295 38.2138 22.082C38.0406 22.4252 38.0059 22.528 38.1445 22.8369C38.2484 23.0773 38.5254 23.2489 38.8027 23.249C39.3573 23.249 39.9472 22.3565 40.2245 21.1201L40.3281 20.6396L40.5361 20.8799C41.7146 22.2193 42.6508 24.0739 42.8242 25.3789L42.8583 25.7227L42.6503 25.4131C42.3037 24.8636 41.9574 24.52 41.5068 24.2109C40.7095 23.6958 39.8771 23.4898 37.624 23.3867C35.6138 23.2837 34.4699 23.1121 33.3261 22.7344C31.385 22.1162 30.4145 21.2573 28.1269 18.2695C27.1218 16.9303 26.4627 16.209 25.8388 15.5908C24.3829 14.217 22.9958 13.4955 21.1933 13.2207C20.7086 13.1521 20.6737 13.1516 20.916 13.083ZM39.3232 13.8047C39.3232 13.8047 39.288 13.9767 39.2187 14.1484C39.0455 14.6636 39.0107 15.3849 39.1494 16.209C39.288 17.2733 39.3921 17.4109 40.5009 18.5781C41.0209 19.1276 41.6455 19.7807 41.8535 20.0898L42.2695 20.6045L41.8535 20.2275C41.3682 19.7811 40.224 18.853 39.9814 18.75C39.8084 18.6472 39.7735 18.6815 39.6699 18.7842C39.5659 18.8872 39.5659 19.025 39.5312 19.7119C39.4965 20.7766 39.3573 21.4293 39.0107 22.1162C38.8375 22.4937 38.8032 22.3906 38.9765 21.9785C39.1151 21.6696 39.1152 21.5319 39.1152 20.5361C39.1152 18.5098 38.8723 17.9942 37.4511 17.1699C37.1045 16.9639 36.515 16.6551 36.1337 16.4834C35.7614 16.3157 35.4881 16.181 35.4755 16.1748C35.5102 16.1405 36.8965 16.5517 37.4511 16.7578C38.2825 17.0667 38.4214 17.1016 38.5253 17.0674C38.6293 16.9987 38.6645 16.7927 38.6992 16.209C38.7338 15.316 38.8725 14.7321 39.1152 14.1826C39.2192 13.9766 39.2885 13.8047 39.3232 13.8047ZM20.9511 14.1484C21.367 14.2171 22.0946 14.4912 22.4413 14.6973C23.3772 15.2468 23.794 16.0025 24.2099 17.96C24.3138 18.5433 24.4862 19.1957 24.5556 19.4023C24.6943 19.7801 25.1108 20.6049 25.4921 21.1201C25.7693 21.4978 25.596 21.7034 25.0068 21.6348C24.1402 21.5661 22.9266 20.7424 22.164 19.6777C21.1588 18.304 20.5351 16.2087 20.6738 14.6289L20.7079 14.1133L20.9511 14.1484Z" fill="white" fill-opacity="0.39"/>
</g>
</svg>
