<svg width="282" height="48" viewBox="0 0 282 48" fill="none" xmlns="http://www.w3.org/2000/svg">
<path d="M42.1609 28.8573C41.3184 29.3591 40.3355 29.4503 39.5866 29.0398C38.6505 28.4924 38.0888 27.2608 38.0888 25.573V20.4185C38.0888 17.9553 37.1059 16.1763 35.4209 15.7202C32.5657 14.8991 30.4126 18.3202 29.6169 19.5975L24.5619 27.4889V17.7728C24.5151 15.5377 23.7662 14.2149 22.362 13.8043C21.4259 13.5306 20.0217 13.6675 18.6643 15.6746L7.38407 33.282C5.88628 30.4995 5.09057 27.3977 5.09057 24.2502C5.09057 13.6219 13.8433 5.00059 24.5619 5.00059C35.2804 5.00059 44.0332 13.6219 44.0332 24.2502V24.2958V24.3414C44.1268 26.3941 43.4715 28.0363 42.1609 28.8573ZM48.3393 24.2502V24.2046V24.159C48.2925 11.2499 37.6207 0.712769 24.5619 0.712769C11.4562 0.712769 0.784424 11.2499 0.784424 24.2502C0.784424 37.2049 11.4562 47.7877 24.5619 47.7877C30.5998 47.7877 36.3102 45.5525 40.7099 41.4927C41.5992 40.6717 41.646 39.3488 40.8035 38.4822C40.0078 37.6155 38.6505 37.5698 37.7612 38.3453C37.7612 38.3453 37.7612 38.3453 37.7143 38.3909C34.1571 41.6752 29.3829 43.5454 24.4683 43.5454C18.7111 43.5454 13.5625 41.0822 10.0052 37.1593L20.1621 21.2852V28.6293C20.1621 32.1416 21.5663 33.282 22.7364 33.6013C23.9066 33.9206 25.6852 33.6926 27.6043 30.7276L33.1742 21.9238C33.3614 21.6501 33.5018 21.3764 33.689 21.194V25.6643C33.689 28.9486 35.0464 31.5943 37.3867 32.8715C39.493 34.0575 42.1609 33.9206 44.3608 32.5978C47.0755 30.8644 48.5265 27.8538 48.3393 24.2502ZM81.478 16.2219C82.0396 16.5412 82.5545 17.3167 82.5545 18.0009C82.5545 19.0957 81.6184 20.008 80.5418 20.008C80.261 20.008 80.027 19.9168 79.7929 19.8711C78.5292 18.9588 76.9378 18.3659 75.2528 18.3659C71.2742 18.3659 68.5595 21.5133 68.5595 25.4362C68.5595 29.3591 71.3211 32.4609 75.2528 32.4609C77.2186 32.4609 78.9972 31.6855 80.3078 30.4539C80.6354 30.2258 81.0567 30.0889 81.478 30.0889C82.5545 30.0889 83.397 30.91 83.397 31.9592C83.397 32.6434 82.9757 33.2364 82.4609 33.5557C80.5418 35.1522 77.9675 36.2014 75.2996 36.2014C69.2148 36.2014 64.2533 31.3206 64.2533 25.2994C64.2533 19.2781 69.2148 14.3973 75.2996 14.3973C77.5462 14.3517 79.6993 15.0359 81.478 16.2219ZM92.6178 20.7835C96.7835 20.7835 100.247 24.2046 100.247 28.4468C100.247 32.6434 96.7367 36.247 92.6178 36.247C88.2648 36.247 84.6608 32.689 84.6608 28.4468C84.6608 24.2046 88.2648 20.7835 92.6178 20.7835ZM92.571 32.4609C94.3964 32.4609 95.941 30.7732 95.941 28.4924C95.941 26.2117 94.3964 24.752 92.571 24.752C90.6051 24.752 88.9669 26.166 88.9669 28.4924C88.9669 30.7276 90.6051 32.4609 92.571 32.4609ZM102.868 33.875V23.1098C102.868 21.9238 103.804 20.9659 105.021 20.9659C106.192 20.9659 107.174 21.9238 107.174 23.1098V33.875C107.174 35.061 106.192 36.0189 105.021 36.0189C103.851 36.0189 102.868 35.0154 102.868 33.875ZM102.541 16.9062C102.541 15.4921 103.664 14.3973 105.021 14.3973C106.426 14.3973 107.549 15.5377 107.549 16.9062C107.549 18.2746 106.426 19.3694 105.021 19.3694C103.617 19.3238 102.541 18.229 102.541 16.9062ZM115.412 28.0363V33.875C115.412 35.061 114.429 36.0189 113.259 36.0189C112.089 36.0189 111.106 35.061 111.106 33.875V22.6081C111.106 21.6958 111.855 20.9659 112.791 20.9659C113.727 20.9659 114.429 21.7414 114.429 22.6081C116.161 21.0115 117.706 20.7835 119.157 20.7835C123.463 20.7835 125.382 23.9309 125.382 27.5345V33.875C125.382 35.061 124.399 36.0189 123.229 36.0189C122.059 36.0189 121.076 35.061 121.076 33.875V28.0363C121.076 26.2117 120.842 24.6607 118.127 24.6607C116.208 24.6607 115.412 26.2117 115.412 28.0363ZM139.33 30.2714C138.815 30.2714 138.488 30.0433 138.207 29.724L133.199 24.4327V33.875C133.199 35.061 132.216 36.0189 131.045 36.0189C129.875 36.0189 128.892 35.061 128.892 33.875V15.1728C129.033 14.8535 129.36 14.6254 129.688 14.6254C130.063 14.6254 130.39 14.9447 130.624 15.1728L138.628 23.9309C138.862 24.2046 139.143 24.3414 139.33 24.3414C139.471 24.3414 139.798 24.2046 140.032 23.9309L148.036 15.1728C148.27 14.9447 148.551 14.6254 148.972 14.6254C149.347 14.6254 149.674 14.8535 149.768 15.1728V33.875C149.768 35.061 148.832 36.0189 147.615 36.0189C146.445 36.0189 145.462 35.061 145.462 33.875V24.4327L140.453 29.724C140.079 30.0433 139.751 30.2714 139.33 30.2714ZM160.018 32.4609C161.937 32.4609 163.576 30.7732 163.576 28.4924C163.576 26.2117 161.891 24.7064 160.018 24.7064C158.146 24.7064 156.602 26.2573 156.602 28.4924C156.602 30.6819 158.099 32.4609 160.018 32.4609ZM164.605 34.3768L164.512 33.875C163.669 35.4715 161.001 36.2014 159.316 36.2014C155.291 36.2014 152.295 32.6434 152.295 28.4012C152.295 24.2046 155.338 20.7378 159.55 20.7378C160.252 20.7378 162.686 20.9203 164.559 23.0642L164.652 22.5624C164.652 21.6501 165.354 20.9203 166.29 20.9203C167.227 20.9203 167.975 21.6958 167.975 22.5624V34.3312C167.975 35.2435 167.227 35.9733 166.29 35.9733C165.307 36.0189 164.605 35.2435 164.605 34.3768ZM179.817 24.6607H179.349C176.635 24.7976 176.12 26.3029 176.12 28.0363V33.875C176.12 35.061 175.137 36.0189 173.967 36.0189C172.796 36.0189 171.813 35.061 171.813 33.875V22.6081C171.813 21.6958 172.562 20.9659 173.499 20.9659C174.435 20.9659 175.137 21.7414 175.137 22.6081C176.728 21.1484 178.039 20.8291 179.349 20.7835H179.771C180.8 20.7835 181.736 21.6501 181.736 22.7449C181.783 23.7484 180.847 24.6607 179.817 24.6607ZM196.433 32.8715C196.621 33.1908 196.761 33.5101 196.761 33.875C196.761 34.9698 195.731 35.9733 194.608 35.9733C193.859 35.9733 193.204 35.4259 192.689 34.7873L187.728 29.1766V33.8294C187.728 35.0154 186.745 35.9733 185.574 35.9733C184.404 35.9733 183.421 35.0154 183.421 33.8294V16.7237C183.421 15.5377 184.357 14.5798 185.574 14.5798C186.791 14.5798 187.728 15.5377 187.728 16.7237V27.3977L192.689 22.0607C193.204 21.5133 193.812 20.9203 194.561 20.9203C195.638 20.9203 196.621 21.8782 196.621 22.973C196.621 23.2923 196.527 23.6572 196.34 23.9309L192.408 28.1275L196.433 32.8715ZM204.859 24.7064C203.688 24.7064 201.769 25.2994 201.769 27.0784H207.995C207.948 25.2994 205.982 24.7064 204.859 24.7064ZM210.475 29.7696H201.769C201.769 32.2785 204.25 32.689 205.327 32.689C206.122 32.689 207.246 32.5522 208.135 32.1416C208.416 31.9592 208.837 31.8223 209.258 31.8223C210.194 31.8223 210.99 32.5978 210.99 33.5557C210.99 34.1943 210.569 34.7417 210.054 35.061C208.743 36.0189 207.012 36.247 205.373 36.247C201.02 36.247 197.416 33.9662 197.416 28.6293C197.416 24.4327 199.616 20.7835 204.765 20.7835C208.931 20.7835 212.067 23.4291 212.16 28.1275C212.16 28.9942 211.411 29.7696 210.475 29.7696ZM222.458 36.2014H221.287C218.011 36.2014 216.092 34.7873 216.092 29.8153V24.6607H214.969C213.939 24.6607 213.05 23.7484 213.05 22.7449C213.05 21.6501 213.986 20.7835 214.969 20.7835H216.092V16.8149C216.092 15.6289 217.028 14.671 218.245 14.671C219.415 14.671 220.398 15.6289 220.398 16.8149V20.7835H222.177C223.206 20.7835 224.096 21.6501 224.096 22.7449C224.096 23.7484 223.16 24.6607 222.177 24.6607H220.398V28.9942C220.398 31.8679 220.539 32.4609 221.849 32.4609H222.458C223.487 32.4609 224.377 33.282 224.377 34.3312C224.377 35.3347 223.487 36.2014 222.458 36.2014ZM243.286 16.2219C243.848 16.5412 244.363 17.3167 244.363 18.0009C244.363 19.0957 243.427 20.008 242.35 20.008C242.069 20.008 241.835 19.9168 241.601 19.8711C240.337 18.9588 238.746 18.3659 237.061 18.3659C233.083 18.3659 230.368 21.5133 230.368 25.4362C230.368 29.3591 233.129 32.4609 237.061 32.4609C239.027 32.4609 240.806 31.6855 242.116 30.4539C242.444 30.2258 242.865 30.0889 243.286 30.0889C244.363 30.0889 245.205 30.91 245.205 31.9592C245.205 32.6434 244.784 33.2364 244.269 33.5557C242.35 35.1522 239.776 36.2014 237.108 36.2014C231.023 36.2014 226.062 31.3206 226.062 25.2994C226.062 19.2781 231.023 14.3973 237.108 14.3973C239.355 14.3517 241.554 15.0359 243.286 16.2219ZM254.192 32.4609C256.111 32.4609 257.749 30.7732 257.749 28.4924C257.749 26.2117 256.064 24.7064 254.192 24.7064C252.273 24.7064 250.775 26.2573 250.775 28.4924C250.775 30.6819 252.32 32.4609 254.192 32.4609ZM258.779 34.3768L258.685 33.875C257.843 35.4715 255.175 36.2014 253.49 36.2014C249.465 36.2014 246.469 32.6434 246.469 28.4012C246.469 24.2046 249.511 20.7378 253.724 20.7378C254.426 20.7378 256.86 20.9203 258.732 23.0642L258.826 22.5624C258.826 21.6501 259.528 20.9203 260.464 20.9203C261.4 20.9203 262.149 21.6958 262.149 22.5624V34.3312C262.149 35.2435 261.4 35.9733 260.464 35.9733C259.481 36.0189 258.779 35.2435 258.779 34.3768ZM273.897 32.4609C275.816 32.4609 277.314 30.6819 277.314 28.4924C277.314 26.2117 275.77 24.7064 273.897 24.7064C271.978 24.7064 270.34 26.2117 270.34 28.4924C270.34 30.7732 271.978 32.4609 273.897 32.4609ZM270.34 34.9698V40.3068C270.34 41.4928 269.357 42.4507 268.187 42.4507C267.017 42.4507 266.034 41.4928 266.034 40.3068V22.6081C266.034 21.6958 266.783 20.9659 267.719 20.9659C268.655 20.9659 269.357 21.7414 269.357 22.7905C270.949 21.194 272.914 20.7835 274.412 20.7835C278.578 20.7835 281.667 24.2046 281.667 28.4468C281.667 32.6434 278.718 36.247 274.646 36.247C273.382 36.2014 271.51 35.8365 270.34 34.9698Z" fill="black"/>
</svg>
