<svg width="240" height="42" viewBox="0 0 240 42" fill="none" xmlns="http://www.w3.org/2000/svg">
<path d="M35.7046 24.9284C34.9869 25.3558 34.1494 25.4336 33.5114 25.0838C32.7139 24.6175 32.2353 23.5682 32.2353 22.1303V17.7388C32.2353 15.6402 31.3979 14.1246 29.9624 13.736C27.5299 13.0364 25.6955 15.9511 25.0176 17.0393L20.7109 23.7625V15.4848C20.671 13.5805 20.033 12.4535 18.8367 12.1037C18.0391 11.8706 16.8428 11.9872 15.6864 13.6971L6.07603 28.698C4.79996 26.3274 4.12205 23.6848 4.12205 21.0032C4.12205 11.9483 11.5791 4.60327 20.7109 4.60327C29.8427 4.60327 37.2997 11.9483 37.2997 21.0032V21.0421V21.081C37.3795 22.8298 36.8212 24.2288 35.7046 24.9284ZM40.9684 21.0032V20.9644V20.9255C40.9285 9.92743 31.8366 0.950195 20.7109 0.950195C9.54533 0.950195 0.453369 9.92743 0.453369 21.0032C0.453369 32.0402 9.54533 41.0563 20.7109 41.0563C25.855 41.0563 30.72 39.152 34.4685 35.6933C35.2261 34.9937 35.266 33.8667 34.5482 33.1283C33.8703 32.39 32.7139 32.3511 31.9562 33.0117C31.9562 33.0117 31.9562 33.0118 31.9163 33.0506C28.8857 35.8487 24.8182 37.4421 20.6311 37.4421C15.7263 37.4421 11.3398 35.3435 8.30914 32.0013L16.9624 18.4772V24.734C16.9624 27.7265 18.1588 28.698 19.1557 28.9701C20.1526 29.2421 21.6679 29.0478 23.3029 26.5217L28.0483 19.0213C28.2078 18.7881 28.3274 18.5549 28.4869 18.3995V22.208C28.4869 25.0061 29.6433 27.2601 31.6372 28.3483C33.4316 29.3587 35.7046 29.2421 37.5789 28.1151C39.8917 26.6383 41.1279 24.0734 40.9684 21.0032ZM69.2013 14.1634C69.6798 14.4355 70.1185 15.0961 70.1185 15.6791C70.1185 16.6118 69.321 17.389 68.4038 17.389C68.1645 17.389 67.9651 17.3113 67.7658 17.2724C66.6891 16.4952 65.3333 15.99 63.8977 15.99C60.5081 15.99 58.1953 18.6715 58.1953 22.0137C58.1953 25.3558 60.548 27.9985 63.8977 27.9985C65.5725 27.9985 67.0878 27.3378 68.2044 26.2885C68.4835 26.0942 68.8424 25.9776 69.2013 25.9776C70.1185 25.9776 70.8363 26.6772 70.8363 27.571C70.8363 28.1539 70.4774 28.6592 70.0387 28.9312C68.4038 30.2914 66.2105 31.1852 63.9376 31.1852C58.7535 31.1852 54.5266 27.0269 54.5266 21.8971C54.5266 16.7672 58.7535 12.6089 63.9376 12.6089C65.8517 12.5701 67.686 13.153 69.2013 14.1634ZM78.692 18.0497C82.2411 18.0497 85.192 20.9644 85.192 24.5786C85.192 28.1539 82.2012 31.2241 78.692 31.2241C74.9835 31.2241 71.913 28.1928 71.913 24.5786C71.913 20.9644 74.9835 18.0497 78.692 18.0497ZM78.6522 27.9985C80.2074 27.9985 81.5233 26.5606 81.5233 24.6174C81.5233 22.6743 80.2074 21.4307 78.6522 21.4307C76.9773 21.4307 75.5816 22.6355 75.5816 24.6174C75.5816 26.5217 76.9773 27.9985 78.6522 27.9985ZM87.4251 29.2032V20.0317C87.4251 19.0213 88.2227 18.2051 89.2595 18.2051C90.2564 18.2051 91.0938 19.0213 91.0938 20.0317V29.2032C91.0938 30.2137 90.2564 31.0298 89.2595 31.0298C88.2625 31.0298 87.4251 30.1748 87.4251 29.2032ZM87.146 14.7464C87.146 13.5416 88.103 12.6089 89.2595 12.6089C90.4558 12.6089 91.4128 13.5805 91.4128 14.7464C91.4128 15.9123 90.4558 16.845 89.2595 16.845C88.0631 16.8061 87.146 15.8734 87.146 14.7464ZM98.1122 24.2288V29.2032C98.1122 30.2137 97.2747 31.0298 96.2778 31.0298C95.2809 31.0298 94.4435 30.2137 94.4435 29.2032V19.6042C94.4435 18.8269 95.0815 18.2051 95.879 18.2051C96.6766 18.2051 97.2747 18.8658 97.2747 19.6042C98.7502 18.244 100.066 18.0497 101.302 18.0497C104.971 18.0497 106.606 20.7312 106.606 23.8013V29.2032C106.606 30.2137 105.769 31.0298 104.772 31.0298C103.775 31.0298 102.937 30.2137 102.937 29.2032V24.2288C102.937 22.6743 102.738 21.353 100.425 21.353C98.7901 21.353 98.1122 22.6743 98.1122 24.2288ZM118.489 26.1331C118.051 26.1331 117.772 25.9388 117.532 25.6667L113.265 21.1587V29.2032C113.265 30.2137 112.428 31.0298 111.431 31.0298C110.434 31.0298 109.597 30.2137 109.597 29.2032V13.2696C109.716 12.9976 109.995 12.8033 110.275 12.8033C110.594 12.8033 110.873 13.0753 111.072 13.2696L117.891 20.7312C118.091 20.9644 118.33 21.081 118.489 21.081C118.609 21.081 118.888 20.9644 119.087 20.7312L125.906 13.2696C126.106 13.0753 126.345 12.8033 126.704 12.8033C127.023 12.8033 127.302 12.9976 127.382 13.2696V29.2032C127.382 30.2137 126.584 31.0298 125.548 31.0298C124.551 31.0298 123.713 30.2137 123.713 29.2032V21.1587L119.446 25.6667C119.127 25.9388 118.848 26.1331 118.489 26.1331ZM136.115 27.9985C137.75 27.9985 139.146 26.5606 139.146 24.6174C139.146 22.6743 137.71 21.3919 136.115 21.3919C134.52 21.3919 133.204 22.7132 133.204 24.6174C133.204 26.4828 134.48 27.9985 136.115 27.9985ZM140.023 29.6307L139.943 29.2032C139.225 30.5634 136.952 31.1852 135.517 31.1852C132.087 31.1852 129.535 28.1539 129.535 24.5397C129.535 20.9644 132.127 18.0108 135.716 18.0108C136.314 18.0108 138.388 18.1663 139.983 19.9928L140.063 19.5653C140.063 18.7881 140.661 18.1663 141.458 18.1663C142.256 18.1663 142.894 18.8269 142.894 19.5653V29.5919C142.894 30.3691 142.256 30.9909 141.458 30.9909C140.621 31.0298 140.023 30.3691 140.023 29.6307ZM152.983 21.353H152.584C150.271 21.4696 149.833 22.7521 149.833 24.2288V29.2032C149.833 30.2137 148.995 31.0298 147.998 31.0298C147.001 31.0298 146.164 30.2137 146.164 29.2032V19.6042C146.164 18.8269 146.802 18.2051 147.6 18.2051C148.397 18.2051 148.995 18.8658 148.995 19.6042C150.351 18.3606 151.468 18.0886 152.584 18.0497H152.943C153.82 18.0497 154.618 18.7881 154.618 19.7208C154.658 20.5758 153.86 21.353 152.983 21.353ZM167.139 28.3483C167.299 28.6203 167.418 28.8923 167.418 29.2032C167.418 30.1359 166.541 30.9909 165.584 30.9909C164.946 30.9909 164.388 30.5246 163.949 29.9805L159.722 25.2004V29.1644C159.722 30.1748 158.885 30.9909 157.888 30.9909C156.891 30.9909 156.053 30.1748 156.053 29.1644V14.5909C156.053 13.5805 156.851 12.7644 157.888 12.7644C158.925 12.7644 159.722 13.5805 159.722 14.5909V23.6848L163.949 19.1378C164.388 18.6715 164.906 18.1663 165.544 18.1663C166.461 18.1663 167.299 18.9824 167.299 19.9151C167.299 20.1871 167.219 20.498 167.059 20.7312L163.71 24.3066L167.139 28.3483ZM174.317 21.3919C173.32 21.3919 171.685 21.8971 171.685 23.4127H176.989C176.949 21.8971 175.274 21.3919 174.317 21.3919ZM179.102 25.7056H171.685C171.685 27.843 173.799 28.1928 174.716 28.1928C175.394 28.1928 176.351 28.0762 177.108 27.7264C177.348 27.571 177.707 27.4544 178.066 27.4544C178.863 27.4544 179.541 28.1151 179.541 28.9312C179.541 29.4753 179.182 29.9416 178.743 30.2137C177.627 31.0298 176.151 31.2241 174.756 31.2241C171.047 31.2241 167.977 29.281 167.977 24.734C167.977 21.1587 169.851 18.0497 174.237 18.0497C177.786 18.0497 180.458 20.3037 180.538 24.3066C180.538 25.0449 179.9 25.7056 179.102 25.7056ZM189.311 31.1852H188.314C185.523 31.1852 183.888 29.9805 183.888 25.7445V21.353H182.931C182.053 21.353 181.296 20.5758 181.296 19.7208C181.296 18.7881 182.093 18.0497 182.931 18.0497H183.888V14.6687C183.888 13.6582 184.685 12.8421 185.722 12.8421C186.719 12.8421 187.556 13.6582 187.556 14.6687V18.0497H189.072C189.949 18.0497 190.707 18.7881 190.707 19.7208C190.707 20.5758 189.909 21.353 189.072 21.353H187.556V25.0449C187.556 27.4933 187.676 27.9985 188.792 27.9985H189.311C190.188 27.9985 190.946 28.698 190.946 29.5919C190.946 30.4468 190.188 31.1852 189.311 31.1852ZM207.056 14.1634C207.535 14.4355 207.973 15.0961 207.973 15.6791C207.973 16.6118 207.176 17.389 206.259 17.389C206.019 17.389 205.82 17.3113 205.621 17.2724C204.544 16.4952 203.188 15.99 201.752 15.99C198.363 15.99 196.05 18.6715 196.05 22.0137C196.05 25.3558 198.403 27.9985 201.752 27.9985C203.427 27.9985 204.943 27.3378 206.059 26.2885C206.338 26.0942 206.697 25.9776 207.056 25.9776C207.973 25.9776 208.691 26.6772 208.691 27.571C208.691 28.1539 208.332 28.6592 207.894 28.9312C206.259 30.2914 204.065 31.1852 201.792 31.1852C196.608 31.1852 192.381 27.0269 192.381 21.8971C192.381 16.7672 196.608 12.6089 201.792 12.6089C203.706 12.5701 205.581 13.153 207.056 14.1634ZM216.347 27.9985C217.982 27.9985 219.378 26.5606 219.378 24.6174C219.378 22.6743 217.943 21.3919 216.347 21.3919C214.712 21.3919 213.436 22.7132 213.436 24.6174C213.436 26.4828 214.752 27.9985 216.347 27.9985ZM220.255 29.6307L220.176 29.2032C219.458 30.5634 217.185 31.1852 215.749 31.1852C212.32 31.1852 209.768 28.1539 209.768 24.5397C209.768 20.9644 212.36 18.0108 215.949 18.0108C216.547 18.0108 218.62 18.1663 220.216 19.9928L220.295 19.5653C220.295 18.7881 220.893 18.1663 221.691 18.1663C222.489 18.1663 223.127 18.8269 223.127 19.5653V29.5919C223.127 30.3691 222.489 30.9909 221.691 30.9909C220.854 31.0298 220.255 30.3691 220.255 29.6307ZM233.136 27.9985C234.771 27.9985 236.047 26.4828 236.047 24.6174C236.047 22.6743 234.731 21.3919 233.136 21.3919C231.501 21.3919 230.105 22.6743 230.105 24.6174C230.105 26.5606 231.501 27.9985 233.136 27.9985ZM230.105 30.1359V34.6828C230.105 35.6933 229.268 36.5094 228.271 36.5094C227.274 36.5094 226.436 35.6933 226.436 34.6828V19.6042C226.436 18.8269 227.074 18.2051 227.872 18.2051C228.669 18.2051 229.268 18.8658 229.268 19.7596C230.623 18.3995 232.298 18.0497 233.574 18.0497C237.123 18.0497 239.755 20.9644 239.755 24.5786C239.755 28.1539 237.243 31.2241 233.774 31.2241C232.697 31.1852 231.102 30.8743 230.105 30.1359Z" fill="white" fill-opacity="0.39"/>
</svg>
