<svg width="242" height="55" viewBox="0 0 242 55" fill="none" xmlns="http://www.w3.org/2000/svg">
<path d="M42.9692 31.631C42.9692 26.2266 42.973 21.2243 42.9677 16.2224C42.9648 13.3087 42.7279 13.0807 39.7812 13.0706C39.458 13.0696 39.1328 13.0937 38.8115 13.0668C35.6507 12.8037 35.1125 13.7381 35.1717 16.5312C35.2891 22.0543 35.0989 27.5847 35.2556 33.1059C35.3246 35.5412 34.5538 36.8594 31.81 36.9979C31.81 32.135 31.8148 27.2803 31.808 22.4261C31.8037 19.3199 30.9052 18.385 27.9352 18.3586C24.5279 18.3283 23.5965 19.1535 23.5718 22.4227C23.5339 27.4674 23.5732 32.513 23.5485 37.5576C23.5451 38.2444 23.7509 38.9542 23.2218 39.6207C22.5806 40.4281 21.7798 40.5907 20.8614 40.456C19.7033 40.2867 20.1979 39.3447 20.1907 38.757C20.1421 34.7535 20.079 30.7466 20.2091 26.7465C20.2591 25.2196 19.5742 24.4233 18.3079 24.2242C16.9726 24.0145 15.5422 23.9986 14.2172 24.2415C12.7742 24.506 12.3733 25.7058 12.3878 27.1086C12.4291 31.0323 12.399 34.9564 12.4038 38.8801C12.4058 40.2214 12.7009 41.7213 11.0254 42.3426C8.34611 43.3357 5.87703 42.888 4.59662 41.2471C2.20616 38.1833 1.18154 34.4967 0.838863 30.8308C-0.504647 16.4595 7.48894 4.71494 21.8472 1.26399C30.4441 -0.801967 38.4057 1.32026 45.3354 6.97326C48.9548 9.92551 51.454 13.5861 53.1712 17.8575C54.0216 19.9725 53.8687 21.797 52.1529 23.4494C49.312 26.1867 46.6692 29.1419 42.9692 31.631Z" fill="black"/>
<path d="M11.3382 48.9006C20.1817 47.4093 28.0559 45.2558 35.4034 41.5298C42.5442 37.9086 48.7259 33.09 53.5646 26.6887C53.8942 26.253 54.0243 25.5552 54.7271 25.7572C55.3275 25.9293 55.0887 26.5733 55.0867 27.0051C55.0256 40.4439 45.9671 51.8624 32.0471 53.9919C24.5796 55.1345 18.0669 53.3681 11.3382 48.9006Z" fill="black"/>
<path d="M237.526 29.0663C237.526 30.3469 237.548 31.6285 237.521 32.9087C237.481 34.7515 237.447 36.5058 240.187 36.1802C241.045 36.0783 241.555 36.7342 241.365 37.5811C241.14 38.5804 240.064 39.0493 239.36 38.9017C236.984 38.4034 234.694 38.3895 232.319 38.9098C231.611 39.0652 230.7 38.6242 230.691 37.3883C230.683 36.2115 231.22 36.0105 232.15 36.1504C234.141 36.4505 234.717 35.3598 234.605 33.6767C234.421 30.9206 234.848 28.1737 234.215 25.3864C233.665 22.9641 231.975 22.3067 230.124 22.2947C228.027 22.2812 226.457 23.584 225.893 25.7447C225.223 28.3103 225.346 30.9365 225.426 33.542C225.468 34.9237 225.843 36.2932 227.744 36.1341C228.805 36.0451 229.402 36.2423 229.303 37.5176C229.197 38.8767 228.119 39.1373 227.324 38.9416C224.95 38.3578 222.346 39.2811 220.376 38.6891C218.18 38.0293 216.65 39.195 214.819 39.0349C214.258 38.9858 213.385 39.2604 213.169 38.9877C210.797 35.9869 208.534 38.9724 206.306 39.1695C201.434 39.5999 198.733 37.8297 198.294 34.4302C197.854 31.0202 199.881 28.4926 204.756 28.004C206.017 27.8775 207.326 28.0092 208.48 27.4413C209.266 27.0546 210.384 26.944 210.376 25.6119C210.367 24.3207 209.916 23.4763 208.753 22.777C207.253 21.8749 205.864 22.2586 204.44 22.7299C203.926 22.9001 203.369 23.2767 203.695 23.9788C204.2 25.0652 204.554 26.2871 203.258 26.8536C202.323 27.2619 200.986 27.4269 200.187 26.277C199.347 25.0671 199.259 23.6532 200.146 22.5448C202.429 19.694 205.997 18.7173 210.232 19.9493C212.42 20.586 213.75 23.2594 213.752 26.579C213.754 29.2206 213.719 31.8632 213.779 34.5038C213.792 35.078 213.252 36.1245 214.52 36.1072C215.612 36.0927 215.731 35.255 215.694 34.3918C215.69 34.3119 215.683 34.2302 215.695 34.1518C215.87 33.0304 215.053 31.2582 217.243 31.3717C219.377 31.4823 218.428 33.2434 218.578 34.3423C218.703 35.2622 218.337 36.237 219.957 36.1927C221.309 36.1557 222.412 35.9927 222.452 34.4629C222.536 31.263 222.606 28.0511 222.398 24.8622C222.341 23.9822 222.211 22.1124 220.065 23.0906C218.989 23.5806 218.489 22.3745 218.386 21.568C218.288 20.801 218.756 20.0912 219.816 20.2778C221.66 20.6019 223.529 19.8229 225.441 20.8592C226.593 21.4839 227.868 19.958 229.274 19.6887C233.966 18.7908 237.526 21.3295 237.527 25.9428C237.526 26.9849 237.526 28.0256 237.526 29.0663Z" fill="black"/>
<path d="M75.2722 35.6638C75.3527 35.6638 75.4338 35.6648 75.5144 35.6638C80.1778 35.6162 81.0918 36.6252 80.818 30.5259C80.7719 29.502 80.7826 28.4162 81.9786 28.005C82.8896 27.6919 83.4949 28.3618 83.9924 28.999C84.1656 29.2212 84.1894 29.5934 84.2001 29.9002C84.2773 32.1412 83.7691 34.3389 84.1132 36.6377C84.386 38.4627 82.8401 39.1177 80.9107 38.9061C75.4954 38.3131 70.0573 38.2381 64.6391 38.9503C63.6844 39.0758 62.9301 39.008 62.2768 38.2343C61.9225 37.8149 61.7604 37.3451 61.9497 36.9171C62.3516 36.0091 63.2378 36.089 64.0421 36.151C66.2122 36.3179 66.801 35.1897 66.767 33.2334C66.6893 28.7533 66.6913 24.2703 66.766 19.7902C66.7995 17.7868 66.3064 16.5129 63.9635 16.9217C62.6064 17.1583 61.9666 16.396 61.939 15.265C61.9036 13.8328 63.1136 14.0709 64.0576 14.0295C66.1418 13.9377 68.2168 14.4787 70.2447 14.4238C73.6777 14.331 77.1059 13.9526 80.5559 14.0233C83.3954 14.0815 84.3913 15.1635 83.6497 17.907C83.3041 19.1853 83.1294 20.2687 83.6016 21.5619C83.8987 22.376 84.0846 23.4754 83.3041 24.2751C82.7221 24.871 81.7961 24.8022 81.2587 24.5189C80.3676 24.0491 80.3361 23.0094 80.3147 22.0351C80.2016 16.9169 80.1866 16.9173 74.8601 16.9173C70.4 16.9173 69.0793 18.6457 70.1413 23.0036C70.515 24.5377 71.7076 24.1001 72.6715 24.1063C73.6797 24.1131 74.8222 24.1068 74.9732 22.717C75.0591 21.9259 75.0028 21.118 74.9892 20.3178C74.9722 19.3358 75.4236 18.8429 76.4346 18.839C77.4374 18.8352 77.8451 19.3108 77.9189 20.2942C78.0218 21.6633 77.5937 22.9449 77.4457 24.2679C77.2248 26.241 77.5432 28.2012 77.8796 30.157C78.0917 31.3915 77.8233 32.3312 76.1575 32.3312C74.3888 32.3307 75.0639 31.1087 75.0144 30.3239C74.9178 28.8004 75.4518 27.0903 72.8968 26.972C70.8582 26.8773 69.7724 27.3842 70.1321 29.5997C70.1825 29.9118 70.1389 30.2388 70.1389 30.5586C70.1389 35.6638 70.1389 35.6638 75.2722 35.6638Z" fill="black"/>
<path d="M107.983 21.2392C111.025 19.0472 113.985 18.9265 117.054 20.4163C119.112 21.4157 120.096 23.0724 120.109 25.3115C120.124 28.0348 119.942 30.775 120.21 33.4719C120.299 34.3659 119.577 37.0108 122.526 35.7865C123.259 35.482 124.204 36.3611 124.015 37.6302C123.818 38.9618 122.769 39.1571 121.932 38.9407C119.717 38.3674 117.579 38.3141 115.389 38.9695C114.546 39.222 113.865 38.7151 113.361 38.114C113.027 37.7153 112.939 37.22 113.297 36.6732C113.807 35.8951 114.363 35.7797 115.226 36.0952C116.363 36.5112 116.715 35.7783 116.884 34.8049C117.487 31.3391 117.513 27.8549 116.587 24.4785C116.168 22.9512 114.47 22.2972 112.959 22.263C111.085 22.2207 109.301 23.0353 108.619 24.8527C107.356 28.2171 108.104 31.7762 108.066 35.2527C108.058 35.9562 108.854 36.3722 109.505 36.0923C110.772 35.5484 111.714 35.6989 111.819 37.146C111.927 38.6122 110.488 39.1359 109.541 38.934C107.152 38.4247 104.88 38.403 102.502 38.9551C101.658 39.1513 100.758 38.694 100.657 37.3672C100.54 35.8115 102.015 35.7528 102.446 35.8975C104.89 36.7199 104.58 35.1156 104.583 33.7489C104.593 28.7826 104.537 23.8159 104.615 18.851C104.64 17.2049 104.338 16.1806 102.383 16.4225C101.5 16.5316 100.639 16.2724 100.751 15.2063C100.861 14.1579 101.617 13.4298 102.735 13.5832C103.962 13.752 105.143 13.7631 106.369 13.577C107.66 13.3808 108.021 14.1858 107.994 15.3409C107.951 17.1813 107.983 19.0237 107.983 21.2392Z" fill="black"/>
<path d="M135.118 29.8948C133.26 29.8958 131.399 29.9646 129.546 29.8717C128.287 29.8087 128.24 30.5046 128.387 31.3582C128.843 34.0094 131.146 36.5553 133.497 36.5058C135.767 36.4582 137.655 35.3838 138.471 33.0279C138.803 32.069 139.154 30.847 140.514 31.4029C141.712 31.8925 142.029 32.8341 141.525 34.258C140.226 37.923 136.508 39.9572 132.3 39.0517C127.485 38.0158 125.34 35.8056 124.982 31.262C124.564 25.9702 126.329 22.0696 130.432 20.2268C133.548 18.8269 136.485 19.2539 139.071 21.1304C141.653 23.0045 142.196 25.8831 141.967 28.9494C141.896 29.9078 141.369 29.9011 140.69 29.8977C138.833 29.8881 136.975 29.8943 135.118 29.8948Z" fill="black"/>
<path d="M162.323 34.8223C162.323 34.0225 162.308 33.2218 162.328 32.4225C162.346 31.6791 162.049 30.7596 163.414 30.8375C164.391 30.8933 165.073 30.9981 165.257 32.1989C165.849 36.0582 169.876 37.7913 173.144 35.6191C174.033 35.0286 174.71 34.0918 174.323 33.028C173.799 31.5843 172.402 30.9678 170.993 30.9077C169.462 30.8423 168.053 30.4177 166.598 30.082C163.809 29.4386 162.754 28.3863 162.831 24.807C162.88 22.5059 165.047 20.2769 167.406 19.8013C169.187 19.442 170.987 19.2309 172.7 19.9196C173.404 20.2028 173.831 20.2779 174.335 19.696C174.831 19.1242 175.654 19.1078 176.087 19.4594C176.667 19.9297 177.155 20.7732 176.835 21.5595C176.391 22.6497 176.411 23.572 176.801 24.7089C177.215 25.9131 176.785 27.2423 175.28 27.4308C173.847 27.6102 174.036 26.3757 173.951 25.4221C173.77 23.3854 172.178 22.7511 170.523 22.4602C169.098 22.2096 167.735 22.7872 166.811 23.8798C165.65 25.2533 166.488 26.9244 168.595 27.4515C170.261 27.8684 171.977 28.0863 173.657 28.4551C176.857 29.1582 178.056 30.7572 177.849 33.9518C177.69 36.4073 175.334 38.6954 172.834 39.0518C170.552 39.3764 168.34 39.4432 166.251 38.3348C165.716 38.0506 165.449 37.9957 165.205 38.6469C164.852 39.5938 163.987 39.6717 163.191 39.4485C162.191 39.1686 162.313 38.2602 162.321 37.4614C162.33 36.5819 162.323 35.7018 162.323 34.8223Z" fill="black"/>
<path d="M180.278 29.3985C180.002 25.4522 181.251 22.2158 184.959 20.3677C187.9 18.9009 190.888 19.2347 193.673 20.9C195.615 22.0614 196.406 24.8853 195.589 27.0056C195.155 28.1323 194.433 28.5988 193.211 28.4694C192.275 28.3704 191.429 28.5608 190.847 27.3672C190.219 26.0808 190.849 25.2767 191.623 24.7838C192.375 24.3043 192.193 24.2067 191.763 23.7109C189.755 21.393 185.416 22.2562 184.269 25.5042C183.245 28.404 183.1 31.4202 184.881 34.3336C185.9 35.9989 187.379 36.5144 188.937 36.3456C190.863 36.1369 192.585 35.154 192.871 32.9115C193.038 31.6025 193.64 30.7018 194.991 30.9278C196.61 31.1985 196.56 32.6874 196.215 33.7363C195.457 36.0436 194.017 38.1586 191.646 38.8593C188.775 39.7076 185.747 39.8735 183.28 37.4517C180.564 34.7861 180.275 34.0791 180.278 29.3985Z" fill="black"/>
<path d="M150.68 30.5566C150.68 31.6761 150.669 32.7957 150.683 33.9152C150.7 35.3507 151.134 36.3832 152.896 36.149C154.001 36.0023 154.773 36.1961 154.578 37.6234C154.397 38.956 153.345 39.1474 152.502 38.943C150.134 38.3683 147.847 38.3698 145.481 38.9416C144.618 39.1503 143.506 38.9671 143.412 37.6403C143.33 36.4813 144.006 36.0268 145.066 36.1567C146.995 36.3923 147.37 35.4146 147.311 33.7478C147.21 30.8725 147.313 27.991 147.27 25.1128C147.251 23.8167 147.422 22.3134 145.146 23.0862C144.503 23.3046 143.377 22.9578 143.398 21.707C143.415 20.7024 143.927 20.1484 144.888 20.3066C146.677 20.6009 148.483 19.7305 150.345 20.8775C151.277 21.4512 152.498 19.7781 153.901 19.5963C156.086 19.3131 157.893 19.7579 159.527 21.1165C161.349 22.6318 161.026 24.7194 160.761 26.6391C160.523 28.3564 157.747 29.1288 156.342 28.0285C155.426 27.3114 155.133 26.5468 156.159 25.6745C156.889 25.0546 158.281 24.3741 157.218 23.3868C156.377 22.6049 155.116 21.7325 153.561 22.4298C151.43 23.3844 151.016 25.2768 150.712 27.2037C150.539 28.2959 150.68 29.437 150.68 30.5566Z" fill="black"/>
<path d="M89.5465 29.8317C89.5465 28.5516 89.5076 27.27 89.5562 25.9917C89.6178 24.374 89.7042 22.8683 87.2798 23.1183C86.3988 23.2092 86.1188 22.4446 86.1479 21.6199C86.1785 20.7432 86.6226 20.2103 87.4885 20.3012C89.611 20.5239 89.6397 19.2043 89.5518 17.7279C89.5188 17.1696 89.561 16.6079 89.5445 16.0481C89.5164 15.0935 89.8984 14.5371 90.9312 14.5107C91.9175 14.4857 92.3665 14.9122 92.4762 15.9058C92.6291 17.2917 91.7476 19.0124 93.029 19.991C94.0964 20.8062 95.6966 20.2974 97.0445 20.2416C98.2953 20.1901 98.5933 21.0096 98.7074 21.806C98.8812 23.0169 97.9517 23.1251 96.9731 23.1785C92.4572 23.4247 92.4087 23.4439 92.4806 28.0904C92.5131 30.2073 92.1253 32.3468 92.913 34.4479C93.3795 35.692 94.0959 36.1984 95.4044 36.1585C96.8382 36.1147 97.0411 34.9687 97.2498 34.0569C97.4765 33.0668 97.3246 31.9876 97.3071 30.9479C97.2911 29.9928 97.6643 29.4379 98.6972 29.4119C99.6844 29.3869 100.218 29.8072 100.219 30.8104C100.219 32.2507 100.392 33.7179 100.173 35.125C99.6932 38.2028 97.5226 39.3498 93.1921 39.0271C91.0118 38.8645 89.5654 36.9342 89.5494 34.1517C89.5397 32.7124 89.5465 31.272 89.5465 29.8317Z" fill="black"/>
<path d="M210.21 30.1499C210.595 34.4953 208.014 36.9441 204.025 36.1862C202.533 35.9024 201.975 34.8521 201.713 33.7985C201.399 32.5366 202.58 31.6825 203.599 31.4065C205.757 30.8212 208.002 30.5495 210.21 30.1499Z" fill="#BDA8CB"/>
<path d="M133.487 27.0109C132.678 27.0109 131.86 27.0878 131.065 26.9883C130.338 26.8974 129.374 27.5144 128.913 26.5531C128.468 25.6235 129.453 25.0257 129.882 24.5501C132.616 21.5204 136.222 21.6002 138.192 25.4119C138.941 26.8603 138.387 27.0493 137.124 27.0171C135.912 26.9864 134.699 27.0109 133.487 27.0109Z" fill="#BDA8CB"/>
</svg>
