<svg width="185" height="58" viewBox="0 0 185 58" fill="none" xmlns="http://www.w3.org/2000/svg">
<path d="M133.801 22.8882C129.995 23.3568 127.189 25.4978 126.157 28.6934C125.448 30.8663 125.534 32.9328 126.426 35.0312C127.48 37.513 129.748 39.2812 132.758 39.9523C133.629 40.1547 135.876 40.1653 136.779 39.9949C140.273 39.3132 142.714 37.1615 143.724 33.9021C143.961 33.1245 143.993 32.8902 143.993 31.5054C143.993 30.1207 143.961 29.8864 143.724 29.1088C142.724 25.8919 140.37 23.7722 137.005 23.0692C136.306 22.9308 134.392 22.8242 133.801 22.8882ZM135.93 27.1169C137.188 27.4471 138.381 28.2566 138.929 29.2046C139.779 30.632 139.746 32.5173 138.865 33.8808C137.284 36.3413 133.672 36.7461 131.501 34.701C129.694 32.9967 129.63 30.2911 131.35 28.4484C132.5 27.2341 134.328 26.7121 135.93 27.1169Z" fill="black"/>
<path d="M152.401 22.8882C148.595 23.3568 145.789 25.4978 144.757 28.6934C144.047 30.8663 144.133 32.9328 145.026 35.0312C146.079 37.513 148.348 39.2812 151.358 39.9523C152.229 40.1547 154.476 40.1653 155.379 39.9949C158.873 39.3132 161.313 37.1615 162.324 33.9021C162.56 33.1245 162.592 32.8902 162.592 31.5054C162.592 30.1207 162.56 29.8864 162.324 29.1088C161.324 25.8919 158.969 23.7722 155.604 23.0692C154.906 22.9308 152.992 22.8242 152.401 22.8882ZM154.54 27.1169C155.809 27.4471 156.991 28.2566 157.54 29.2046C158.389 30.632 158.357 32.5173 157.475 33.8808C155.895 36.3413 152.282 36.7461 150.111 34.701C148.305 32.9967 148.24 30.2911 149.96 28.4484C151.1 27.2341 152.927 26.7121 154.54 27.1169Z" fill="black"/>
<path d="M177.449 22.9416C175.235 23.2612 173.568 24.6672 173.031 26.691C172.515 28.5977 172.88 30.547 173.912 31.495C174.525 32.0595 175.256 32.3897 177.267 33.0288C179.212 33.6466 179.653 33.9129 179.858 34.5627C180.083 35.3083 179.524 36.203 178.675 36.4374C178.213 36.5652 177.342 36.5652 176.761 36.4267C176.127 36.2776 174.987 35.7237 174.504 35.3083C174.289 35.1059 174.041 34.9568 173.998 34.9568C173.955 34.9568 173.708 35.3189 173.472 35.7663C173.138 36.3948 173.031 36.5332 173.009 36.3628L172.977 36.1498H170.386H167.806V29.6948V23.2399H165.667H163.527V31.5163V39.7927H168.247H172.966V39.3347C172.966 39.0897 172.988 38.8873 173.009 38.8873C173.031 38.8873 173.418 39.0684 173.869 39.2707C175.267 39.9205 176.159 40.1122 177.89 40.1122C179.578 40.1122 180.374 39.9631 181.416 39.4625C182.244 39.0684 183.362 37.9712 183.739 37.2043C184.48 35.6705 184.588 33.604 183.964 32.2938C183.857 32.0489 183.491 31.5695 183.147 31.2393C182.416 30.515 181.631 30.1209 179.621 29.4818C178.825 29.2368 178.03 28.9385 177.847 28.832C177.202 28.4379 177.073 27.5751 177.578 27.0319C178.46 26.0945 180.03 26.1797 181.664 27.2556L181.986 27.4579L182.857 25.8069C183.319 24.9122 183.706 24.1559 183.685 24.1453C183.588 24.0494 182.373 23.5701 181.685 23.357C180.234 22.9096 178.707 22.7499 177.449 22.9416Z" fill="black"/>
<path d="M57.2557 29.1622V40.0696H61.1475C63.2869 40.0696 65.5231 40.0057 66.1036 39.9417C70.9092 39.3559 74.457 36.4693 75.5966 32.2299C75.9728 30.8238 76.0588 28.3526 75.7901 26.8827C75.2418 24.028 73.7474 21.7272 71.4468 20.1721C70.4147 19.4691 69.4901 19.0856 68.0065 18.6808C66.8454 18.3719 66.6627 18.3719 62.0398 18.308L57.2665 18.2548V29.1622H57.2557ZM65.7488 22.7072C68.7698 23.3463 70.7802 25.8495 70.7802 28.9811C70.7695 31.0582 70.1244 32.8477 68.9203 34.03C67.727 35.223 65.9531 35.7982 63.4804 35.8089H62.3086V29.1728V22.5368H63.6094C64.319 22.5368 65.2758 22.622 65.7488 22.7072Z" fill="black"/>
<path d="M77.6069 29.1729V40.0697L86.8741 40.059H96.1305L98.5172 36.7357C99.8396 34.9249 100.947 33.4336 100.979 33.4336C101.033 33.4336 102.14 34.9249 103.452 36.757L105.849 40.0803H108.859C110.504 40.0803 111.859 40.0377 111.859 40.0058C111.859 39.9632 110.085 37.5133 107.946 34.5627L104.032 29.1942L107.774 24.0175C109.838 21.1841 111.633 18.7449 111.751 18.6064C111.988 18.3721 111.988 18.404 111.988 20.5876V22.8032H114.267H116.546V31.4418V40.0803H119.266H121.986V31.4418V22.8032L124.642 22.7819L127.286 22.7393L125.867 20.5237L124.448 18.3081L115.159 18.2975H105.86L103.473 21.6208C102.151 23.4316 101.044 24.9229 101.011 24.9442C100.968 24.9442 99.861 23.4529 98.5494 21.6208L96.152 18.2975H86.8956H77.6284V29.1729H77.6069ZM93.9589 23.7192C96.0875 26.6378 97.8292 29.0877 97.8292 29.1623C97.8292 29.2368 96.0875 31.708 93.9481 34.6479L90.0563 39.9951L90.0133 37.9074L89.9918 35.8196H86.3258H82.6598V33.3697V30.9305H85.627H88.5942V28.864V26.7976H85.627H82.6598V24.6672V22.5369H86.3258H89.9918V20.4704C89.9918 19.3307 90.0133 18.404 90.0456 18.404C90.0778 18.404 91.8302 20.8007 93.9589 23.7192Z" fill="black"/>
<path fillRule="evenodd" clipRule="evenodd" d="M18.8752 3.81098C15.4349 5.58982 12.6075 7.09172 12.6182 7.15563C12.6182 7.31541 20.8856 11.4589 21.1758 11.4483C21.3048 11.4483 22.2724 11.0009 23.326 10.4683L25.2396 9.49902L27.3253 10.5642L29.4109 11.6294L32.8297 10.1062C37.9686 7.81604 38.5061 7.5604 38.4201 7.48583C38.3126 7.36866 36.4634 6.3887 31.4536 3.77902C29.0347 2.52212 26.691 1.27586 26.2395 1.03087C25.7879 0.775226 25.3579 0.583496 25.2826 0.583496C25.2074 0.583496 22.3154 2.03213 18.8752 3.81098ZM3.77033 11.5655L0.179575 13.3976V21.4503C0.179575 25.8814 0.222578 29.503 0.287082 29.503C0.340836 29.503 2.10396 28.7467 4.21112 27.82L8.02764 26.1371V17.6476L9.88752 18.6489C11.3281 19.4265 12.758 20.1934 14.1986 20.971L16.6498 22.2811L17.7356 21.7911C18.4236 21.4822 19.1009 21.1733 19.7782 20.8644C20.305 20.6194 21.5951 20.0443 22.6487 19.5862C23.7023 19.1282 24.6698 18.6595 24.8096 18.553C24.9924 18.4145 22.7562 17.1896 16.5423 14.026C11.8549 11.64 7.86638 9.7014 7.68362 9.71205C7.50085 9.72271 5.73773 10.5535 3.77033 11.5655ZM39.0544 12.0767C36.614 13.1739 34.6143 14.1112 34.6143 14.1645C34.6143 14.2177 35.9474 15.006 37.5708 15.9114C39.2049 16.8168 40.5272 17.605 40.5272 17.6689C40.5272 17.7328 39.0866 18.4252 37.3235 19.2028C35.5604 19.991 31.1096 21.9829 27.422 23.6339L15.0909 29.1622C11.9839 30.5469 9.18872 31.8038 8.87695 31.9423C2.54474 34.7863 0.792369 35.5745 0.555852 35.713C0.319335 35.8515 0.26558 36.6397 0.222577 40.6128L0.168823 45.3528L3.37256 46.9719L6.57629 48.591L11.0271 46.5991C13.4675 45.502 15.4779 44.554 15.4779 44.4794C15.4779 44.4048 15.0264 44.1172 14.4781 43.8296C13.9298 43.542 12.7902 42.9029 11.9409 42.413C11.1024 41.923 10.2638 41.4756 10.081 41.4117C9.89828 41.3478 9.74777 41.2519 9.74777 41.1773C9.74777 41.1134 11.7044 40.1867 14.1018 39.1322C18.7462 37.0764 22.2939 35.4893 29.9162 32.0701C33.3242 30.5469 36.7322 29.013 40.151 27.4898C43.1504 26.1477 46.6337 24.5819 47.8915 24.0067L50.1814 22.9628L50.2352 18.1695L50.2889 13.3763L47.0422 11.7359C45.2576 10.8305 43.7202 10.0849 43.645 10.0849C43.559 10.0849 41.4948 10.9903 39.0544 12.0767ZM49.3214 29.3752C48.8376 29.6095 47.8915 30.0463 47.2142 30.3445C46.5369 30.6428 45.2468 31.2179 44.3545 31.6227L42.7312 32.3577L42.6989 36.5651C42.6774 38.8766 42.5914 40.7619 42.5054 40.7513C42.3119 40.7193 39.2694 39.1748 36.2054 37.5451C33.9908 36.3734 33.851 36.3201 33.335 36.5758C33.0339 36.7249 31.2386 37.5238 29.3464 38.344C27.4543 39.1748 25.8417 39.8991 25.7664 39.9737C25.6912 40.0376 29.4969 42.0827 34.238 44.522L42.8387 48.9531L46.5154 47.0678C48.5366 46.0345 50.2567 45.0865 50.3319 44.9694C50.5147 44.7031 50.4932 28.9172 50.3212 28.9385C50.2459 28.9491 49.7944 29.1409 49.3214 29.3752ZM28.9594 47.8986C28.3251 48.1649 27.6801 48.4418 27.0458 48.7188C25.1214 49.539 25.4977 49.5709 23.2077 48.4418C21.6811 47.6856 21.0253 47.4619 20.7351 47.5684C20.52 47.6536 18.6817 48.4738 16.639 49.3899C14.6071 50.3059 12.8655 51.0622 12.7795 51.0622C11.9194 51.0622 13.3493 51.9037 18.8322 54.6412L25.2611 57.858L27.9703 56.5372C29.4539 55.8129 32.4642 54.3536 34.6358 53.299C36.8182 52.2445 38.5706 51.3604 38.5383 51.3178C38.5061 51.2859 36.6785 50.3592 34.4746 49.2514L30.4753 47.2488L28.9594 47.8986Z" fill="black"/>
</svg>
