<svg width="206" height="47" viewBox="0 0 206 47" fill="none" xmlns="http://www.w3.org/2000/svg">
<path d="M36.7255 26.883C36.7255 22.2787 36.7288 18.0169 36.7243 13.7555C36.7218 11.273 36.52 11.0788 34.0095 11.0702C33.7341 11.0694 33.457 11.0899 33.1833 11.0669C30.4905 10.8428 30.0319 11.6389 30.0823 14.0185C30.1824 18.724 30.0203 23.4357 30.1538 28.1396C30.2126 30.2143 29.5559 31.3374 27.2183 31.4554C27.2183 27.3124 27.2224 23.1763 27.2166 19.0407C27.2129 16.3944 26.4475 15.5979 23.9171 15.5754C21.0142 15.5496 20.2207 16.2526 20.1996 19.0379C20.1673 23.3357 20.2008 27.6344 20.1798 31.9323C20.1769 32.5173 20.3522 33.1221 19.9015 33.6899C19.3552 34.3778 18.6729 34.5163 17.8905 34.4016C16.9039 34.2574 17.3252 33.4548 17.319 32.9541C17.2777 29.5433 17.2239 26.1295 17.3347 22.7216C17.3773 21.4207 16.7939 20.7423 15.715 20.5726C14.5774 20.394 13.3587 20.3805 12.2298 20.5874C11.0004 20.8127 10.6589 21.835 10.6713 23.0301C10.7064 26.3729 10.6808 29.7162 10.6849 33.059C10.6866 34.2017 10.938 35.4796 9.51054 36.0089C7.22791 36.855 5.12434 36.4735 4.03347 35.0756C1.99689 32.4653 1.12395 29.3245 0.832003 26.2012C-0.312618 13.9574 6.49763 3.95148 18.7304 1.0114C26.0546 -0.748722 32.8376 1.05934 38.7414 5.87549C41.825 8.3907 43.9542 11.5094 45.4173 15.1485C46.1417 16.9504 46.0115 18.5048 44.5497 19.9126C42.1294 22.2447 39.8778 24.7623 36.7255 26.883Z" fill="white" fill-opacity="0.39"/>
<path d="M9.7771 41.5965C17.3114 40.326 24.02 38.4913 30.2798 35.3169C36.3635 32.2318 41.6301 28.1265 45.7525 22.6728C46.0332 22.3016 46.1441 21.7071 46.7429 21.8792C47.2544 22.0259 47.0509 22.5745 47.0493 22.9424C46.9972 34.3918 39.2796 44.1199 27.4203 45.9341C21.0583 46.9076 15.5097 45.4027 9.7771 41.5965Z" fill="white" fill-opacity="0.39"/>
<path d="M202.481 24.6982C202.481 25.7892 202.5 26.8811 202.476 27.9718C202.442 29.5418 202.413 31.0364 204.748 30.759C205.479 30.6722 205.914 31.231 205.752 31.9525C205.56 32.8039 204.644 33.2034 204.043 33.0776C202.019 32.6531 200.068 32.6412 198.045 33.0846C197.442 33.2169 196.666 32.8412 196.658 31.7882C196.651 30.7857 197.108 30.6144 197.901 30.7336C199.597 30.9893 200.088 30.0601 199.992 28.6261C199.836 26.278 200.199 23.9378 199.66 21.5631C199.192 19.4994 197.751 18.9393 196.175 18.929C194.388 18.9176 193.05 20.0275 192.57 21.8683C191.999 24.0541 192.104 26.2915 192.172 28.5114C192.208 29.6885 192.528 30.8553 194.147 30.7197C195.051 30.6439 195.56 30.8119 195.475 31.8984C195.385 33.0563 194.467 33.2783 193.789 33.1116C191.767 32.6142 189.548 33.4009 187.87 32.8965C185.999 32.3344 184.695 33.3275 183.135 33.1911C182.657 33.1493 181.914 33.3832 181.73 33.1509C179.709 30.5943 177.781 33.1378 175.883 33.3058C171.732 33.6725 169.431 32.1643 169.057 29.2681C168.682 26.3628 170.409 24.2094 174.563 23.7931C175.636 23.6854 176.751 23.7976 177.735 23.3138C178.404 22.9843 179.357 22.8901 179.35 21.7552C179.342 20.6551 178.958 19.9357 177.967 19.34C176.689 18.5714 175.506 18.8983 174.293 19.2998C173.855 19.4449 173.38 19.7657 173.658 20.3638C174.088 21.2894 174.39 22.3305 173.286 22.8131C172.489 23.1609 171.35 23.3015 170.67 22.3219C169.953 21.291 169.879 20.0865 170.635 19.1421C172.579 16.7133 175.619 15.8812 179.227 16.9309C181.092 17.4733 182.225 19.7509 182.227 22.5791C182.228 24.8297 182.199 27.0811 182.249 29.3308C182.261 29.82 181.801 30.7115 182.88 30.6968C183.811 30.6845 183.912 29.9707 183.881 29.2353C183.878 29.1673 183.872 29.0977 183.882 29.0309C184.031 28.0754 183.335 26.5656 185.201 26.6623C187.019 26.7566 186.211 28.2569 186.338 29.1931C186.445 29.9769 186.132 30.8074 187.513 30.7697C188.665 30.7381 189.605 30.5992 189.639 29.296C189.71 26.5697 189.769 23.8333 189.593 21.1165C189.544 20.3667 189.434 18.7738 187.605 19.6071C186.688 20.0246 186.262 18.9971 186.174 18.31C186.091 17.6565 186.49 17.0517 187.393 17.2107C188.964 17.4869 190.556 16.8231 192.185 17.7061C193.167 18.2383 194.253 16.9383 195.451 16.7088C199.448 15.9439 202.481 18.1067 202.482 22.0371C202.481 22.9249 202.481 23.8116 202.481 24.6982Z" fill="white" fill-opacity="0.39"/>
<path d="M64.2464 30.3185C64.3151 30.3185 64.3841 30.3193 64.4528 30.3185C68.4259 30.2779 69.2045 31.1375 68.9713 25.9411C68.932 25.0688 68.9411 24.1437 69.96 23.7934C70.7362 23.5267 71.2519 24.0974 71.6757 24.6403C71.8233 24.8296 71.8436 25.1467 71.8527 25.4081C71.9185 27.3173 71.4855 29.1897 71.7787 31.1481C72.0111 32.703 70.694 33.261 69.0503 33.0807C64.4366 32.5756 59.8036 32.5116 55.1875 33.1184C54.3741 33.2254 53.7315 33.1676 53.1749 32.5084C52.873 32.1511 52.7349 31.7508 52.8961 31.3862C53.2385 30.6126 53.9936 30.6806 54.6788 30.7335C56.5277 30.8757 57.0293 29.9145 57.0003 28.2478C56.9342 24.4309 56.9358 20.6116 56.9995 16.7947C57.028 15.0879 56.6079 14.0025 54.6118 14.3508C53.4556 14.5524 52.9106 13.903 52.887 12.9393C52.8569 11.7192 53.8878 11.922 54.6921 11.8868C56.4677 11.8085 58.2355 12.2695 59.9632 12.2228C62.888 12.1437 65.8087 11.8212 68.748 11.8815C71.1671 11.931 72.0156 12.8529 71.3838 15.1903C71.0894 16.2793 70.9405 17.2024 71.3428 18.3041C71.5959 18.9977 71.7543 19.9343 71.0894 20.6157C70.5935 21.1233 69.8046 21.0647 69.3468 20.8234C68.5876 20.4231 68.5607 19.5373 68.5425 18.7073C68.4461 14.3467 68.4333 14.3471 63.8954 14.3471C60.0955 14.3471 58.9703 15.8196 59.8751 19.5324C60.1935 20.8394 61.2095 20.4665 62.0308 20.4719C62.8897 20.4776 63.8631 20.4723 63.9917 19.2882C64.0649 18.6143 64.0169 17.9259 64.0053 17.2442C63.9909 16.4075 64.3755 15.9876 65.2368 15.9843C66.0911 15.981 66.4385 16.3862 66.5014 17.2241C66.589 18.3905 66.2243 19.4824 66.0982 20.6095C65.91 22.2906 66.1813 23.9606 66.4679 25.6269C66.6486 26.6786 66.4199 27.4792 65.0007 27.4792C63.4938 27.4787 64.069 26.4377 64.0268 25.769C63.9446 24.4711 64.3994 23.0141 62.2227 22.9133C60.4859 22.8326 59.5608 23.2645 59.8673 25.152C59.9103 25.4179 59.8731 25.6965 59.8731 25.969C59.8731 30.3185 59.873 30.3185 64.2464 30.3185Z" fill="white" fill-opacity="0.39"/>
<path d="M92.1146 18.0296C94.7065 16.1621 97.2286 16.0593 99.8429 17.3286C101.596 18.18 102.435 19.5914 102.446 21.499C102.459 23.8192 102.304 26.1538 102.532 28.4514C102.608 29.2131 101.993 31.4665 104.505 30.4234C105.129 30.164 105.934 30.913 105.774 31.9942C105.606 33.1287 104.712 33.295 103.999 33.1106C102.112 32.6223 100.291 32.5768 98.4249 33.1352C97.7066 33.3503 97.1265 32.9185 96.6968 32.4063C96.4119 32.0667 96.3375 31.6447 96.6426 31.1789C97.0768 30.516 97.5507 30.4176 98.286 30.6864C99.254 31.0408 99.5546 30.4164 99.6985 29.5871C100.212 26.6343 100.234 23.666 99.4455 20.7894C99.0886 19.4882 97.6413 18.931 96.3544 18.9019C94.7574 18.8658 93.2377 19.5599 92.6567 21.1082C91.5807 23.9745 92.218 27.0068 92.1853 29.9686C92.1787 30.568 92.8569 30.9224 93.4118 30.6839C94.4911 30.2205 95.2937 30.3488 95.3835 31.5816C95.4749 32.8308 94.2488 33.277 93.442 33.1049C91.4071 32.671 89.471 32.6526 87.4456 33.1229C86.7264 33.2901 85.9594 32.9005 85.8738 31.7701C85.7737 30.4447 87.0304 30.3947 87.3976 30.518C89.4801 31.2186 89.2158 29.8518 89.2183 28.6874C89.2266 24.4563 89.1794 20.2248 89.2452 15.995C89.2671 14.5925 89.0095 13.7199 87.3442 13.9259C86.592 14.0189 85.8585 13.7981 85.954 12.8898C86.0474 11.9966 86.6913 11.3763 87.6436 11.507C88.6894 11.6508 89.6951 11.6602 90.7401 11.5017C91.84 11.3345 92.1477 12.0204 92.1245 13.0045C92.0877 14.5725 92.1146 16.1421 92.1146 18.0296Z" fill="white" fill-opacity="0.39"/>
<path d="M115.233 25.4034C113.65 25.4042 112.065 25.4628 110.486 25.3837C109.413 25.3301 109.373 25.9229 109.498 26.6502C109.887 28.9089 111.849 31.0779 113.851 31.0357C115.786 30.9951 117.394 30.0798 118.09 28.0727C118.372 27.2557 118.671 26.2146 119.83 26.6883C120.85 27.1053 121.121 27.9076 120.691 29.1207C119.585 32.2431 116.417 33.9762 112.832 33.2047C108.73 32.3222 106.903 30.4392 106.597 26.5682C106.241 22.0598 107.745 18.7366 111.24 17.1666C113.895 15.9739 116.398 16.3377 118.6 17.9364C120.8 19.5331 121.263 21.9856 121.068 24.5979C121.007 25.4145 120.559 25.4087 119.98 25.4059C118.398 25.3977 116.815 25.403 115.233 25.4034Z" fill="white" fill-opacity="0.39"/>
<path d="M138.411 29.6019C138.411 28.9205 138.398 28.2384 138.415 27.5574C138.43 26.924 138.177 26.1407 139.34 26.207C140.172 26.2546 140.753 26.3439 140.91 27.3669C141.414 30.6548 144.845 32.1314 147.63 30.2808C148.387 29.7777 148.964 28.9795 148.634 28.0733C148.187 26.8433 146.997 26.3181 145.797 26.2668C144.493 26.2111 143.292 25.8494 142.053 25.5634C139.677 25.0152 138.778 24.1187 138.843 21.0692C138.885 19.1088 140.732 17.2098 142.741 16.8046C144.258 16.4985 145.792 16.3187 147.251 16.9054C147.851 17.1467 148.215 17.2106 148.645 16.7148C149.067 16.2277 149.768 16.2138 150.137 16.5133C150.631 16.914 151.047 17.6326 150.774 18.3025C150.396 19.2313 150.413 20.0171 150.746 20.9857C151.098 22.0116 150.731 23.144 149.449 23.3046C148.228 23.4575 148.39 22.4057 148.318 21.5933C148.163 19.8582 146.807 19.3177 145.397 19.0699C144.183 18.8564 143.022 19.3485 142.234 20.2793C141.245 21.4495 141.959 22.8732 143.754 23.3223C145.174 23.6775 146.635 23.8631 148.067 24.1773C150.793 24.7763 151.815 26.1386 151.638 28.8603C151.502 30.9523 149.496 32.9017 147.365 33.2053C145.421 33.4818 143.536 33.5388 141.757 32.5944C141.301 32.3523 141.074 32.3056 140.866 32.8603C140.565 33.667 139.828 33.7334 139.15 33.5433C138.298 33.3049 138.402 32.5309 138.409 31.8504C138.417 31.101 138.411 30.3513 138.411 29.6019Z" fill="white" fill-opacity="0.39"/>
<path d="M153.708 24.981C153.472 21.6189 154.536 18.8616 157.695 17.287C160.201 16.0374 162.747 16.3218 165.12 17.7406C166.774 18.73 167.448 21.1359 166.752 22.9423C166.382 23.9022 165.767 24.2996 164.726 24.1894C163.929 24.105 163.208 24.2673 162.712 23.2504C162.177 22.1544 162.714 21.4694 163.373 21.0494C164.014 20.6409 163.859 20.5578 163.493 20.1353C161.782 18.1605 158.085 18.896 157.107 21.6632C156.235 24.1337 156.111 26.7034 157.629 29.1855C158.497 30.6043 159.757 31.0435 161.085 30.8997C162.725 30.7219 164.193 29.8844 164.436 27.9739C164.579 26.8587 165.091 26.0913 166.242 26.2839C167.622 26.5145 167.579 27.783 167.285 28.6766C166.639 30.6424 165.412 32.4443 163.393 33.0412C160.947 33.764 158.367 33.9053 156.265 31.842C153.951 29.571 153.705 28.9687 153.708 24.981Z" fill="white" fill-opacity="0.39"/>
<path d="M128.491 25.9676C128.491 26.9214 128.482 27.8752 128.493 28.829C128.508 30.052 128.878 30.9316 130.379 30.7321C131.32 30.6071 131.978 30.7722 131.812 31.9883C131.658 33.1236 130.761 33.2866 130.043 33.1125C128.026 32.6229 126.078 32.6241 124.061 33.1113C123.326 33.2891 122.379 33.133 122.299 32.0026C122.229 31.0152 122.805 30.628 123.708 30.7386C125.352 30.9394 125.671 30.1065 125.621 28.6864C125.535 26.2367 125.622 23.7818 125.586 21.3296C125.569 20.2255 125.715 18.9447 123.776 19.6031C123.228 19.7891 122.27 19.4937 122.287 18.4281C122.302 17.5722 122.738 17.1002 123.557 17.235C125.081 17.4857 126.619 16.7441 128.206 17.7213C129 18.2101 130.04 16.7847 131.235 16.6298C133.097 16.3885 134.636 16.7675 136.028 17.9249C137.581 19.2159 137.305 20.9945 137.079 22.63C136.877 24.0931 134.512 24.7511 133.315 23.8137C132.534 23.2028 132.285 22.5514 133.159 21.8082C133.781 21.2801 134.967 20.7003 134.061 19.8592C133.345 19.193 132.27 18.4498 130.945 19.0439C129.13 19.8571 128.777 21.4693 128.519 23.1111C128.371 24.0415 128.491 25.0138 128.491 25.9676Z" fill="white" fill-opacity="0.39"/>
<path d="M76.4076 25.3498C76.4076 24.2591 76.3745 23.1672 76.4159 22.0782C76.4684 20.7 76.542 19.4172 74.4765 19.6302C73.726 19.7076 73.4874 19.0562 73.5122 18.3535C73.5382 17.6066 73.9166 17.1527 74.6543 17.2301C76.4626 17.4198 76.487 16.2956 76.4122 15.0377C76.3841 14.5621 76.42 14.0835 76.406 13.6066C76.382 12.7934 76.7074 12.3193 77.5874 12.2968C78.4277 12.2755 78.8102 12.6389 78.9036 13.4854C79.0339 14.6661 78.2829 16.1321 79.3746 16.9659C80.284 17.6603 81.6473 17.2268 82.7957 17.1793C83.8613 17.1355 84.1152 17.8336 84.2124 18.5121C84.3604 19.5438 83.5685 19.6359 82.7349 19.6814C78.8875 19.8912 78.8462 19.9076 78.9074 23.8662C78.9351 25.6697 78.6047 27.4926 79.2758 29.2826C79.6732 30.3425 80.2835 30.7739 81.3984 30.7399C82.6199 30.7026 82.7928 29.7263 82.9706 28.9495C83.1637 28.1059 83.0343 27.1865 83.0194 26.3007C83.0057 25.487 83.3237 25.0142 84.2037 24.9921C85.0448 24.9708 85.4997 25.3289 85.5001 26.1835C85.5005 27.4106 85.6477 28.6606 85.4608 29.8595C85.0522 32.4816 83.203 33.4588 79.5136 33.1839C77.656 33.0454 76.4238 31.4008 76.4101 29.0302C76.4018 27.8039 76.4076 26.5768 76.4076 25.3498Z" fill="white" fill-opacity="0.39"/>
<path d="M179.209 25.6211C179.537 29.3232 177.337 31.4095 173.939 30.7638C172.668 30.5221 172.193 29.6272 171.97 28.7296C171.702 27.6545 172.708 26.9268 173.576 26.6917C175.415 26.1931 177.328 25.9616 179.209 25.6211Z" fill="#1B1B1B"/>
<path d="M113.843 22.947C113.154 22.947 112.457 23.0125 111.78 22.9277C111.16 22.8503 110.339 23.3759 109.947 22.5569C109.567 21.7649 110.407 21.2557 110.772 20.8505C113.101 18.2693 116.174 18.3373 117.852 21.5847C118.49 22.8187 118.018 22.9797 116.941 22.9523C115.909 22.9261 114.875 22.947 113.843 22.947Z" fill="#1B1B1B"/>
</svg>
