<svg width="43" height="43" viewBox="0 0 43 43" fill="none" xmlns="http://www.w3.org/2000/svg">
<circle cx="21.5" cy="21.5" r="21" fill="url(#paint0_linear_51_145)" stroke="url(#paint1_linear_51_145)"/>
<mask id="mask0_51_145" style="mask-type:alpha" maskUnits="userSpaceOnUse" x="9" y="9" width="25" height="25">
<rect x="9.40625" y="9.40625" width="24.1875" height="24.1875" fill="#D9D9D9"/>
</mask>
<g mask="url(#mask0_51_145)">
<path d="M21.5 25.5312C21.7855 25.5312 22.0249 25.4347 22.2181 25.2415C22.4112 25.0483 22.5078 24.809 22.5078 24.5234C22.5078 24.2379 22.4112 23.9985 22.2181 23.8054C22.0249 23.6122 21.7855 23.5156 21.5 23.5156C21.2145 23.5156 20.9751 23.6122 20.7819 23.8054C20.5888 23.9985 20.4922 24.2379 20.4922 24.5234C20.4922 24.809 20.5888 25.0483 20.7819 25.2415C20.9751 25.4347 21.2145 25.5312 21.5 25.5312ZM20.4922 21.5H22.5078V16.4609H20.4922V21.5ZM21.5 31.5781C19.1652 30.9902 17.2378 29.6507 15.7177 27.5595C14.1976 25.4683 13.4375 23.1461 13.4375 20.593V14.4453L21.5 11.4219L29.5625 14.4453V20.593C29.5625 23.1461 28.8024 25.4683 27.2823 27.5595C25.7622 29.6507 23.8348 30.9902 21.5 31.5781ZM21.5 29.4617C23.2469 28.9074 24.6914 27.7988 25.8336 26.1359C26.9758 24.473 27.5469 22.6254 27.5469 20.593V15.8311L21.5 13.5635L15.4531 15.8311V20.593C15.4531 22.6254 16.0242 24.473 17.1664 26.1359C18.3086 27.7988 19.7531 28.9074 21.5 29.4617Z" fill="white"/>
</g>
<defs>
<linearGradient id="paint0_linear_51_145" x1="21.5" y1="0" x2="21.5" y2="65.5" gradientUnits="userSpaceOnUse">
<stop stop-color="#7E61FF"/>
<stop offset="1" stop-color="#FFBD7E"/>
</linearGradient>
<linearGradient id="paint1_linear_51_145" x1="21.5" y1="0" x2="21.5" y2="43" gradientUnits="userSpaceOnUse">
<stop stop-color="white"/>
<stop offset="1" stop-color="white" stop-opacity="0"/>
</linearGradient>
</defs>
</svg>
