<svg width="40" height="39" viewBox="0 0 40 39" fill="none" xmlns="http://www.w3.org/2000/svg">
<circle cx="19.5198" cy="19.5" r="19" fill="url(#paint0_linear_51_158)" stroke="url(#paint1_linear_51_158)"/>
<path fillRule="evenodd" clipRule="evenodd" d="M12.0562 19.3047C16.2245 17.3439 19.0041 16.0513 20.3948 15.4268C24.3657 13.6436 25.1908 13.3338 25.7286 13.3236C25.8469 13.3213 26.1114 13.353 26.2827 13.5031C26.4273 13.6298 26.4671 13.801 26.4862 13.9211C26.5052 14.0413 26.5289 14.315 26.5101 14.5289C26.2949 16.9699 25.3638 22.8936 24.8901 25.6276C24.6897 26.7845 24.295 27.1724 23.9129 27.2104C23.0826 27.2928 22.4521 26.6179 21.6478 26.0487C20.3894 25.1581 19.6784 24.6036 18.4569 23.7345C17.0451 22.7301 17.9603 22.1781 18.7648 21.2759C18.9754 21.0398 22.6339 17.447 22.7047 17.1211C22.7136 17.0804 22.7218 16.9284 22.6382 16.8482C22.5546 16.768 22.4312 16.7954 22.3421 16.8172C22.2159 16.8481 20.2055 18.2828 16.3109 21.1212C15.7403 21.5442 15.2234 21.7504 14.7603 21.7395C14.2497 21.7276 13.2677 21.4279 12.5376 21.1717C11.6422 20.8574 10.9305 20.6913 10.9924 20.1576C11.0247 19.8796 11.3793 19.5953 12.0562 19.3047Z" fill="white"/>
<defs>
<linearGradient id="paint0_linear_51_158" x1="19.5198" y1="0" x2="19.5198" y2="59.407" gradientUnits="userSpaceOnUse">
<stop stopColor="#7E61FF"/>
<stop offset="1" stopColor="#FFBD7E"/>
</linearGradient>
<linearGradient id="paint1_linear_51_158" x1="19.5198" y1="0" x2="19.5198" y2="39" gradientUnits="userSpaceOnUse">
<stop stopColor="white"/>
<stop offset="1" stopColor="white" stopOpacity="0"/>
</linearGradient>
</defs>
</svg>
