<svg width="40" height="39" viewBox="0 0 40 39" fill="none" xmlns="http://www.w3.org/2000/svg">
<circle cx="19.5595" cy="19.5" r="19" fill="url(#paint0_linear_51_151)" stroke="url(#paint1_linear_51_151)"/>
<path d="M27.9131 16.1654C27.8225 15.4974 27.57 14.8605 27.1768 14.3082C26.9372 14.0545 26.6464 13.8525 26.3229 13.7152C25.9994 13.5778 25.6503 13.5081 25.2979 13.5105C22.7589 13.3235 18.9503 13.3235 18.9503 13.3235C18.9503 13.3235 15.1417 13.3235 12.6026 13.5105C12.2587 13.5149 11.9194 13.588 11.6051 13.7251C11.2909 13.8622 11.0083 14.0606 10.7745 14.3082C10.3632 14.8558 10.0931 15.493 9.98737 16.1654C9.87641 17.1714 9.81709 18.1823 9.80963 19.1943V20.6152C9.80963 22.1234 9.98737 23.6441 9.98737 23.6441C10.0799 24.3116 10.3322 24.948 10.7237 25.5013C11.2657 26.0064 11.9823 26.2914 12.7296 26.299C14.2022 26.4361 18.9503 26.486 18.9503 26.486C18.9503 26.486 22.7589 26.486 25.2979 26.2866C25.6409 26.2837 25.9796 26.2126 26.2938 26.0776C26.608 25.9427 26.8911 25.7466 27.126 25.5013C27.5356 24.9527 27.8054 24.3159 27.9131 23.6441C27.9131 23.6441 28.0909 22.1234 28.0909 20.6152V19.1943C28.0834 18.1823 28.0241 17.1714 27.9131 16.1654ZM16.9444 22.5347V17.2747L21.8829 19.9047L16.9444 22.5347Z" fill="white"/>
<defs>
<linearGradient id="paint0_linear_51_151" x1="19.5595" y1="0" x2="19.5595" y2="59.407" gradientUnits="userSpaceOnUse">
<stop stopColor="#7E61FF"/>
<stop offset="1" stopColor="#FFBD7E"/>
</linearGradient>
<linearGradient id="paint1_linear_51_151" x1="19.5595" y1="0" x2="19.5595" y2="39" gradientUnits="userSpaceOnUse">
<stop stopColor="white"/>
<stop offset="1" stopColor="white" stopOpacity="0"/>
</linearGradient>
</defs>
</svg>
